<mxfile host="65bd71144e" pages="4">
    <diagram id="hqmcO3y3KqpVSv6DalhE" name="export-image-01">
        <mxGraphModel dx="1619" dy="554" grid="1" gridSize="10" guides="1" tooltips="1" connect="1" arrows="1" fold="1" page="1" pageScale="1" pageWidth="1654" pageHeight="1169" background="#EEEEEE" math="0" shadow="0">
            <root>
                <mxCell id="0"/>
                <mxCell id="1" parent="0"/>
                <object label="" external-id="some-external-id" placeholders="1" id="HqLKaebLfd4owD3K4dIF-2">
                    <mxCell style="group;comic=0;container=0;rounded=0;imageAspect=0;fontFamily=Open Sans;" parent="1" vertex="1" connectable="0">
                        <mxGeometry x="40" y="80" width="360" height="170" as="geometry"/>
                    </mxCell>
                </object>
                <mxCell id="bWjRyjKAeWCzSmVb9gY3-2" value="Diagram Heading" style="rounded=1;fontSize=18;verticalAlign=top;align=center;fillColor=#F5AB50;strokeColor=#909090;fontColor=#1A1A1A;fontFamily=Open Sans;" parent="HqLKaebLfd4owD3K4dIF-2" vertex="1">
                    <mxGeometry width="360" height="170" as="geometry"/>
                </mxCell>
                <mxCell id="2" value="Customer" style="rounded=1;fillColor=#F5AB50;strokeColor=#909090;fontColor=#1A1A1A;fontFamily=Open Sans;" parent="HqLKaebLfd4owD3K4dIF-2" vertex="1">
                    <mxGeometry x="20" y="70" width="120" height="60" as="geometry"/>
                </mxCell>
                <mxCell id="bWjRyjKAeWCzSmVb9gY3-3" value="Process" style="rounded=1;fillColor=#F5AB50;strokeColor=#909090;fontColor=#1A1A1A;fontFamily=Open Sans;" parent="HqLKaebLfd4owD3K4dIF-2" vertex="1">
                    <mxGeometry x="220" y="70" width="120" height="60" as="geometry"/>
                </mxCell>
                <mxCell id="bWjRyjKAeWCzSmVb9gY3-4" value="" style="edgeStyle=orthogonalEdgeStyle;rounded=1;orthogonalLoop=1;jettySize=auto;fontSize=18;labelBackgroundColor=#EEEEEE;strokeColor=#182E3E;fontColor=#1A1A1A;fontFamily=Open Sans;" parent="HqLKaebLfd4owD3K4dIF-2" source="2" target="bWjRyjKAeWCzSmVb9gY3-3" edge="1">
                    <mxGeometry relative="1" as="geometry"/>
                </mxCell>
            </root>
        </mxGraphModel>
    </diagram>
    <diagram id="jm3ize2Naj_GSVpxp2xG" name="export-image-02">
        <mxGraphModel dx="1619" dy="554" grid="1" gridSize="10" guides="1" tooltips="1" connect="1" arrows="1" fold="1" page="1" pageScale="1" pageWidth="850" pageHeight="1100" math="0" shadow="0">
            <root>
                <mxCell id="0"/>
                <mxCell id="1" parent="0"/>
                <mxCell id="wVpu4kDmNlV663N5kBoS-4" value="THIS IS PAGE 2" style="rounded=1;fontFamily=Open Sans;" parent="1" vertex="1">
                    <mxGeometry x="180" y="360" width="420" height="340" as="geometry"/>
                </mxCell>
                <mxCell id="wVpu4kDmNlV663N5kBoS-1" value="" style="shape=cylinder3;boundedLbl=1;backgroundOutline=1;size=15;fontFamily=Open Sans;" parent="1" vertex="1">
                    <mxGeometry x="380" y="570" width="60" height="80" as="geometry"/>
                </mxCell>
                <mxCell id="wVpu4kDmNlV663N5kBoS-2" value="" style="triangle;fontFamily=Open Sans;" parent="1" vertex="1">
                    <mxGeometry x="490" y="440" width="60" height="80" as="geometry"/>
                </mxCell>
                <mxCell id="wVpu4kDmNlV663N5kBoS-3" value="" style="ellipse;aspect=fixed;fontFamily=Open Sans;" parent="1" vertex="1">
                    <mxGeometry x="230" y="410" width="80" height="80" as="geometry"/>
                </mxCell>
            </root>
        </mxGraphModel>
    </diagram>
    <diagram id="aWnLwLlmm6vc0Hm56EaE" name="export-image-03">
        <mxGraphModel dx="1619" dy="554" grid="1" gridSize="10" guides="1" tooltips="1" connect="1" arrows="1" fold="1" page="1" pageScale="1" pageWidth="850" pageHeight="1100" math="0" shadow="0">
            <root>
                <mxCell id="0"/>
                <mxCell id="1" parent="0"/>
                <mxCell id="Mh6lumw6BaV1JxuCFkpa-1" value="" style="group;fontFamily=Open Sans;" parent="1" vertex="1" connectable="0">
                    <mxGeometry x="70" y="140" width="200" height="600" as="geometry"/>
                </mxCell>
                <mxCell id="D_7xVT_7fKtU3EaV50ee-1" value="Vertical Container" style="swimlane;whiteSpace=wrap;html=1;fontFamily=Open Sans;" parent="Mh6lumw6BaV1JxuCFkpa-1" vertex="1">
                    <mxGeometry width="200" height="200" as="geometry"/>
                </mxCell>
                <mxCell id="D_7xVT_7fKtU3EaV50ee-2" value="Horizontal Container" style="swimlane;horizontal=0;whiteSpace=wrap;html=1;fontFamily=Open Sans;" parent="Mh6lumw6BaV1JxuCFkpa-1" vertex="1">
                    <mxGeometry y="200" width="200" height="200" as="geometry"/>
                </mxCell>
                <mxCell id="D_7xVT_7fKtU3EaV50ee-3" value="Horizontal Container" style="swimlane;horizontal=0;whiteSpace=wrap;html=1;fontFamily=Open Sans;" parent="Mh6lumw6BaV1JxuCFkpa-1" vertex="1">
                    <mxGeometry y="400" width="200" height="200" as="geometry"/>
                </mxCell>
            </root>
        </mxGraphModel>
    </diagram>
    <diagram id="bIMac0TmnFBqK2ykDd6S" name="export-image-04">
        <mxGraphModel dx="3273" dy="959" grid="1" gridSize="10" guides="1" tooltips="1" connect="1" arrows="1" fold="1" page="1" pageScale="1" pageWidth="1654" pageHeight="1169" background="none" math="0" shadow="0">
            <root>
                <mxCell id="0"/>
                <mxCell id="1" parent="0"/>
                <mxCell id="XEjKyY1ZhLmF7yhW4zzl-2" value="" style="rounded=0;fillColor=#eae7ee;fontFamily=Open Sans;" vertex="1" parent="1">
                    <mxGeometry x="-45" width="920" height="980" as="geometry"/>
                </mxCell>
                <UserObject label="" mermaidData="{&#10;  &quot;data&quot;: &quot;%%{init: {'theme': 'forest', 'themeVariables': { 'primaryColor': '#ffcccc', 'edgeLabelBackground':'#ffffee', 'tertiaryColor': '#fff0f0'}}}%%\nsequenceDiagram\n    autonumber\n    participant Citizen\n    participant myGov App\n    participant App Storage\n    participant App Secure Enclave\n    participant Embedded Web\n    participant myGov OIDC\n\n    myGov App -&gt;&gt; App Storage: Generate and store device_id\n    Citizen -&gt;&gt; myGov App: Clicks sign-in\n    myGov App -&gt;&gt; Embedded Web: Open embedded browser\n    Embedded Web -&gt;&gt; myGov OIDC: Call /authorize + signed JWT\n    Note over myGov OIDC: Pass unique device_id&lt;br/&gt;and device_name&lt;br/&gt;\&quot;John's iPhone\&quot;\n    myGov OIDC --&gt;&gt; Embedded Web: Display mobile login page\n    Embedded Web --&gt;&gt; Citizen: \n    Citizen -&gt;&gt; Embedded Web: Logs in to myGov\n    Note over Embedded Web: Logs into myGov&lt;br/&gt;credentials + 2FA&lt;br/&gt;or digital id\n    Embedded Web -&gt;&gt; myGov OIDC: \n    Note over myGov OIDC: Capture consent&lt;br/&gt;to register device\n    myGov OIDC --&gt;&gt; Embedded Web: 302 redirect to mobile return_url&lt;br/&gt;+ one time auth code\n    Embedded Web --&gt;&gt; myGov App: detects return_url\n    rect rgb(191, 223, 255)\n        Note over myGov App, myGov OIDC: Register Device Process\n        myGov App -&gt;&gt; App Secure Enclave: Generate key pair\n        App Secure Enclave --&gt;&gt; myGov App: Public key\n        myGov App -&gt;&gt; myGov OIDC: Call /token with auth code and public key\n        Note over myGov OIDC: Store public key&lt;br/&gt;and register device\n        myGov OIDC --&gt;&gt; myGov App: return_id, refresh token, access token\n        myGov App -&gt;&gt; myGov App: Save refresh token to key-chain\n        Note over myGov App: Prompted to set up PIN\n        myGov App -&gt;&gt; myGov App: Save PIN to key-chain\n    end\n    Note over myGov App: Prompted to set up biometrics (optional)\n    alt Register biometrics\n        Note over myGov App: Follows Register Device Process (new key pair for biometrics)\n    end\n    myGov App --&gt;&gt; Citizen: Initial login complete\n&quot;,&#10;  &quot;config&quot;: {&#10;    &quot;startOnLoad&quot;: false,&#10;    &quot;themeCSS&quot;: &quot;&quot;,&#10;    &quot;theme&quot;: &quot;neutral&quot;,&#10;    &quot;arrowMarkerAbsolute&quot;: false,&#10;    &quot;flowchart&quot;: {&#10;      &quot;diagramPadding&quot;: 8,&#10;      &quot;htmlLabels&quot;: false,&#10;      &quot;nodeSpacing&quot;: 50,&#10;      &quot;rankSpacing&quot;: 50,&#10;      &quot;curve&quot;: &quot;linear&quot;,&#10;      &quot;padding&quot;: 15,&#10;      &quot;useMaxWidth&quot;: true&#10;    },&#10;    &quot;sequence&quot;: {&#10;      &quot;activationWidth&quot;: 10,&#10;      &quot;diagramMarginX&quot;: 50,&#10;      &quot;diagramMarginY&quot;: 10,&#10;      &quot;actorMargin&quot;: 50,&#10;      &quot;width&quot;: 150,&#10;      &quot;height&quot;: 65,&#10;      &quot;boxMargin&quot;: 10,&#10;      &quot;boxTextMargin&quot;: 5,&#10;      &quot;noteMargin&quot;: 10,&#10;      &quot;messageMargin&quot;: 35,&#10;      &quot;messageAlign&quot;: &quot;center&quot;,&#10;      &quot;mirrorActors&quot;: true,&#10;      &quot;bottomMarginAdj&quot;: 1,&#10;      &quot;useMaxWidth&quot;: true,&#10;      &quot;rightAngles&quot;: false,&#10;      &quot;showSequenceNumbers&quot;: false,&#10;      &quot;actorFontSize&quot;: 14,&#10;      &quot;actorFontFamily&quot;: &quot;\&quot;Open-Sans\&quot;, \&quot;sans-serif\&quot;&quot;,&#10;      &quot;actorFontWeight&quot;: 400,&#10;      &quot;noteFontSize&quot;: 14,&#10;      &quot;noteFontFamily&quot;: &quot;\&quot;trebuchet ms\&quot;, verdana, arial&quot;,&#10;      &quot;noteFontWeight&quot;: 400,&#10;      &quot;noteAlign&quot;: &quot;center&quot;,&#10;      &quot;messageFontSize&quot;: 16,&#10;      &quot;messageFontFamily&quot;: &quot;\&quot;trebuchet ms\&quot;, verdana, arial&quot;,&#10;      &quot;messageFontWeight&quot;: 400,&#10;      &quot;wrap&quot;: false,&#10;      &quot;wrapPadding&quot;: 10,&#10;      &quot;labelBoxWidth&quot;: 50,&#10;      &quot;labelBoxHeight&quot;: 20&#10;    },&#10;    &quot;gantt&quot;: {&#10;      &quot;titleTopMargin&quot;: 25,&#10;      &quot;barHeight&quot;: 20,&#10;      &quot;barGap&quot;: 4,&#10;      &quot;topPadding&quot;: 50,&#10;      &quot;leftPadding&quot;: 75,&#10;      &quot;gridLineStartPadding&quot;: 35,&#10;      &quot;fontSize&quot;: 11,&#10;      &quot;fontFamily&quot;: &quot;\&quot;Open-Sans\&quot;, \&quot;sans-serif\&quot;&quot;,&#10;      &quot;numberSectionStyles&quot;: 4,&#10;      &quot;axisFormat&quot;: &quot;%Y-%m-%d&quot;,&#10;      &quot;useMaxWidth&quot;: true&#10;    },&#10;    &quot;journey&quot;: {&#10;      &quot;diagramMarginX&quot;: 50,&#10;      &quot;diagramMarginY&quot;: 10,&#10;      &quot;actorMargin&quot;: 50,&#10;      &quot;width&quot;: 150,&#10;      &quot;height&quot;: 65,&#10;      &quot;boxMargin&quot;: 10,&#10;      &quot;boxTextMargin&quot;: 5,&#10;      &quot;noteMargin&quot;: 10,&#10;      &quot;messageMargin&quot;: 35,&#10;      &quot;messageAlign&quot;: &quot;center&quot;,&#10;      &quot;bottomMarginAdj&quot;: 1,&#10;      &quot;useMaxWidth&quot;: true,&#10;      &quot;rightAngles&quot;: false&#10;    },&#10;    &quot;class&quot;: {&#10;      &quot;arrowMarkerAbsolute&quot;: false,&#10;      &quot;useMaxWidth&quot;: true&#10;    },&#10;    &quot;git&quot;: {&#10;      &quot;arrowMarkerAbsolute&quot;: false,&#10;      &quot;useMaxWidth&quot;: true&#10;    },&#10;    &quot;state&quot;: {&#10;      &quot;dividerMargin&quot;: 10,&#10;      &quot;sizeUnit&quot;: 5,&#10;      &quot;padding&quot;: 8,&#10;      &quot;textHeight&quot;: 10,&#10;      &quot;titleShift&quot;: -15,&#10;      &quot;noteMargin&quot;: 10,&#10;      &quot;forkWidth&quot;: 70,&#10;      &quot;forkHeight&quot;: 7,&#10;      &quot;miniPadding&quot;: 2,&#10;      &quot;fontSizeFactor&quot;: 5.02,&#10;      &quot;fontSize&quot;: 24,&#10;      &quot;labelHeight&quot;: 16,&#10;      &quot;edgeLengthFactor&quot;: &quot;20&quot;,&#10;      &quot;compositTitleSize&quot;: 35,&#10;      &quot;radius&quot;: 5&#10;    },&#10;    &quot;er&quot;: {&#10;      &quot;diagramPadding&quot;: 20,&#10;      &quot;layoutDirection&quot;: &quot;TB&quot;,&#10;      &quot;minEntityWidth&quot;: 100,&#10;      &quot;minEntityHeight&quot;: 75,&#10;      &quot;entityPadding&quot;: 15,&#10;      &quot;stroke&quot;: &quot;grey&quot;,&#10;      &quot;fill&quot;: &quot;honeydew&quot;,&#10;      &quot;fontSize&quot;: 12,&#10;      &quot;useMaxWidth&quot;: true&#10;    },&#10;    &quot;pie&quot;: {&#10;      &quot;useMaxWidth&quot;: true&#10;    }&#10;  }&#10;}" id="XEjKyY1ZhLmF7yhW4zzl-1">
                    <mxCell style="shape=image;noLabel=1;verticalAlign=top;imageAspect=1;image=data:image/svg+xml,PHN2ZyBhcmlhLWxhYmVsbGVkYnk9ImNoYXJ0LXRpdGxlLWdlTWVybWFpZE91dHB1dC0xNjgyNTgxNjkxMDg3IGNoYXJ0LWRlc2MtZ2VNZXJtYWlkT3V0cHV0LTE2ODI1ODE2OTEwODciIHJvbGU9ImltZyIgdmlld0JveD0iLTUwIC0xMCAxNTAzLjUgMTU3OSIgc3R5bGU9Im1heC13aWR0aDogMTUwMy41cHg7IiBoZWlnaHQ9IjE1NzkiIHhtbG5zPSJodHRwOi8vd3d3LnczLm9yZy8yMDAwL3N2ZyIgd2lkdGg9IjEwMCUiIGlkPSJnZU1lcm1haWRPdXRwdXQtMTY4MjU4MTY5MTA4NyI+PHRpdGxlIGlkPSJjaGFydC10aXRsZS1nZU1lcm1haWRPdXRwdXQtMTY4MjU4MTY5MTA4NyI+PC90aXRsZT48ZGVzYyBpZD0iY2hhcnQtZGVzYy1nZU1lcm1haWRPdXRwdXQtMTY4MjU4MTY5MTA4NyI+PC9kZXNjPjxyZWN0IGNsYXNzPSJyZWN0IiBoZWlnaHQ9IjU1NSIgd2lkdGg9IjExOTkuNSIgZmlsbD0icmdiKDE5MSwgMjIzLCAyNTUpIiB5PSI3MjEiIHg9IjIwNCI+PC9yZWN0PjxzdHlsZT4jZ2VNZXJtYWlkT3V0cHV0LTE2ODI1ODE2OTEwODcge2ZvbnQtZmFtaWx5OiJ0cmVidWNoZXQgbXMiLHZlcmRhbmEsYXJpYWwsc2Fucy1zZXJpZjtmb250LXNpemU6MTZweDtmaWxsOiMwMDAwMDA7fSNnZU1lcm1haWRPdXRwdXQtMTY4MjU4MTY5MTA4NyAuZXJyb3ItaWNvbntmaWxsOiM1NTIyMjI7fSNnZU1lcm1haWRPdXRwdXQtMTY4MjU4MTY5MTA4NyAuZXJyb3ItdGV4dHtmaWxsOiM1NTIyMjI7c3Ryb2tlOiM1NTIyMjI7fSNnZU1lcm1haWRPdXRwdXQtMTY4MjU4MTY5MTA4NyAuZWRnZS10aGlja25lc3Mtbm9ybWFse3N0cm9rZS13aWR0aDoycHg7fSNnZU1lcm1haWRPdXRwdXQtMTY4MjU4MTY5MTA4NyAuZWRnZS10aGlja25lc3MtdGhpY2t7c3Ryb2tlLXdpZHRoOjMuNXB4O30jZ2VNZXJtYWlkT3V0cHV0LTE2ODI1ODE2OTEwODcgLmVkZ2UtcGF0dGVybi1zb2xpZHtzdHJva2UtZGFzaGFycmF5OjA7fSNnZU1lcm1haWRPdXRwdXQtMTY4MjU4MTY5MTA4NyAuZWRnZS1wYXR0ZXJuLWRhc2hlZHtzdHJva2UtZGFzaGFycmF5OjM7fSNnZU1lcm1haWRPdXRwdXQtMTY4MjU4MTY5MTA4NyAuZWRnZS1wYXR0ZXJuLWRvdHRlZHtzdHJva2UtZGFzaGFycmF5OjI7fSNnZU1lcm1haWRPdXRwdXQtMTY4MjU4MTY5MTA4NyAubWFya2Vye2ZpbGw6IzAwMDAwMDtzdHJva2U6IzAwMDAwMDt9I2dlTWVybWFpZE91dHB1dC0xNjgyNTgxNjkxMDg3IC5tYXJrZXIuY3Jvc3N7c3Ryb2tlOiMwMDAwMDA7fSNnZU1lcm1haWRPdXRwdXQtMTY4MjU4MTY5MTA4NyBzdmd7Zm9udC1mYW1pbHk6InRyZWJ1Y2hldCBtcyIsdmVyZGFuYSxhcmlhbCxzYW5zLXNlcmlmO2ZvbnQtc2l6ZToxNnB4O30jZ2VNZXJtYWlkT3V0cHV0LTE2ODI1ODE2OTEwODcgLmFjdG9ye3N0cm9rZTpoc2woNzguMTU3ODk0NzM2OCwgNTguNDYxNTM4NDYxNSUsIDU0LjUwOTgwMzkyMTYlKTtmaWxsOiNjZGU0OTg7fSNnZU1lcm1haWRPdXRwdXQtMTY4MjU4MTY5MTA4NyB0ZXh0LmFjdG9yJmd0O3RzcGFue2ZpbGw6YmxhY2s7c3Ryb2tlOm5vbmU7fSNnZU1lcm1haWRPdXRwdXQtMTY4MjU4MTY5MTA4NyAuYWN0b3ItbGluZXtzdHJva2U6Z3JleTt9I2dlTWVybWFpZE91dHB1dC0xNjgyNTgxNjkxMDg3IC5tZXNzYWdlTGluZTB7c3Ryb2tlLXdpZHRoOjEuNTtzdHJva2UtZGFzaGFycmF5Om5vbmU7c3Ryb2tlOiMzMzM7fSNnZU1lcm1haWRPdXRwdXQtMTY4MjU4MTY5MTA4NyAubWVzc2FnZUxpbmUxe3N0cm9rZS13aWR0aDoxLjU7c3Ryb2tlLWRhc2hhcnJheToyLDI7c3Ryb2tlOiMzMzM7fSNnZU1lcm1haWRPdXRwdXQtMTY4MjU4MTY5MTA4NyAjYXJyb3doZWFkIHBhdGh7ZmlsbDojMzMzO3N0cm9rZTojMzMzO30jZ2VNZXJtYWlkT3V0cHV0LTE2ODI1ODE2OTEwODcgLnNlcXVlbmNlTnVtYmVye2ZpbGw6d2hpdGU7fSNnZU1lcm1haWRPdXRwdXQtMTY4MjU4MTY5MTA4NyAjc2VxdWVuY2VudW1iZXJ7ZmlsbDojMzMzO30jZ2VNZXJtYWlkT3V0cHV0LTE2ODI1ODE2OTEwODcgI2Nyb3NzaGVhZCBwYXRoe2ZpbGw6IzMzMztzdHJva2U6IzMzMzt9I2dlTWVybWFpZE91dHB1dC0xNjgyNTgxNjkxMDg3IC5tZXNzYWdlVGV4dHtmaWxsOiMzMzM7c3Ryb2tlOiMzMzM7fSNnZU1lcm1haWRPdXRwdXQtMTY4MjU4MTY5MTA4NyAubGFiZWxCb3h7c3Ryb2tlOiMzMjY5MzI7ZmlsbDojY2RlNDk4O30jZ2VNZXJtYWlkT3V0cHV0LTE2ODI1ODE2OTEwODcgLmxhYmVsVGV4dCwjZ2VNZXJtYWlkT3V0cHV0LTE2ODI1ODE2OTEwODcgLmxhYmVsVGV4dCZndDt0c3BhbntmaWxsOmJsYWNrO3N0cm9rZTpub25lO30jZ2VNZXJtYWlkT3V0cHV0LTE2ODI1ODE2OTEwODcgLmxvb3BUZXh0LCNnZU1lcm1haWRPdXRwdXQtMTY4MjU4MTY5MTA4NyAubG9vcFRleHQmZ3Q7dHNwYW57ZmlsbDpibGFjaztzdHJva2U6bm9uZTt9I2dlTWVybWFpZE91dHB1dC0xNjgyNTgxNjkxMDg3IC5sb29wTGluZXtzdHJva2Utd2lkdGg6MnB4O3N0cm9rZS1kYXNoYXJyYXk6MiwyO3N0cm9rZTojMzI2OTMyO2ZpbGw6IzMyNjkzMjt9I2dlTWVybWFpZE91dHB1dC0xNjgyNTgxNjkxMDg3IC5ub3Rle3N0cm9rZTojNmVhYTQ5O2ZpbGw6I2ZmZjVhZDt9I2dlTWVybWFpZE91dHB1dC0xNjgyNTgxNjkxMDg3IC5ub3RlVGV4dCwjZ2VNZXJtYWlkT3V0cHV0LTE2ODI1ODE2OTEwODcgLm5vdGVUZXh0Jmd0O3RzcGFue2ZpbGw6YmxhY2s7c3Ryb2tlOm5vbmU7fSNnZU1lcm1haWRPdXRwdXQtMTY4MjU4MTY5MTA4NyAuYWN0aXZhdGlvbjB7ZmlsbDojZjRmNGY0O3N0cm9rZTojNjY2O30jZ2VNZXJtYWlkT3V0cHV0LTE2ODI1ODE2OTEwODcgLmFjdGl2YXRpb24xe2ZpbGw6I2Y0ZjRmNDtzdHJva2U6IzY2Njt9I2dlTWVybWFpZE91dHB1dC0xNjgyNTgxNjkxMDg3IC5hY3RpdmF0aW9uMntmaWxsOiNmNGY0ZjQ7c3Ryb2tlOiM2NjY7fSNnZU1lcm1haWRPdXRwdXQtMTY4MjU4MTY5MTA4NyAuYWN0b3JQb3B1cE1lbnV7cG9zaXRpb246YWJzb2x1dGU7fSNnZU1lcm1haWRPdXRwdXQtMTY4MjU4MTY5MTA4NyAuYWN0b3JQb3B1cE1lbnVQYW5lbHtwb3NpdGlvbjphYnNvbHV0ZTtmaWxsOiNjZGU0OTg7Ym94LXNoYWRvdzowcHggOHB4IDE2cHggMHB4IHJnYmEoMCwwLDAsMC4yKTtmaWx0ZXI6ZHJvcC1zaGFkb3coM3B4IDVweCAycHggcmdiKDAgMCAwIC8gMC40KSk7fSNnZU1lcm1haWRPdXRwdXQtMTY4MjU4MTY5MTA4NyAuYWN0b3ItbWFuIGxpbmV7c3Ryb2tlOmhzbCg3OC4xNTc4OTQ3MzY4LCA1OC40NjE1Mzg0NjE1JSwgNTQuNTA5ODAzOTIxNiUpO2ZpbGw6I2NkZTQ5ODt9I2dlTWVybWFpZE91dHB1dC0xNjgyNTgxNjkxMDg3IC5hY3Rvci1tYW4gY2lyY2xlLCNnZU1lcm1haWRPdXRwdXQtMTY4MjU4MTY5MTA4NyBsaW5le3N0cm9rZTpoc2woNzguMTU3ODk0NzM2OCwgNTguNDYxNTM4NDYxNSUsIDU0LjUwOTgwMzkyMTYlKTtmaWxsOiNjZGU0OTg7c3Ryb2tlLXdpZHRoOjJweDt9I2dlTWVybWFpZE91dHB1dC0xNjgyNTgxNjkxMDg3IDpyb290ey0tbWVybWFpZC1mb250LWZhbWlseToidHJlYnVjaGV0IG1zIix2ZXJkYW5hLGFyaWFsLHNhbnMtc2VyaWY7fTwvc3R5bGU+PGc+PC9nPjxkZWZzPjxzeW1ib2wgaGVpZ2h0PSIyNCIgd2lkdGg9IjI0IiBpZD0iY29tcHV0ZXIiPjxwYXRoIGQ9Ik0yIDJ2MTNoMjB2LTEzaC0yMHptMTggMTFoLTE2di05aDE2djl6bS0xMC4yMjggNmwuNDY2LTFoMy41MjRsLjQ2NyAxaC00LjQ1N3ptMTQuMjI4IDNoLTI0bDItNmgyLjEwNGwtMS4zMyA0aDE4LjQ1bC0xLjI5Ny00aDIuMDczbDIgNnptLTUtMTBoLTE0di03aDE0djd6IiB0cmFuc2Zvcm09InNjYWxlKC41KSI+PC9wYXRoPjwvc3ltYm9sPjwvZGVmcz48ZGVmcz48c3ltYm9sIGNsaXAtcnVsZT0iZXZlbm9kZCIgZmlsbC1ydWxlPSJldmVub2RkIiBpZD0iZGF0YWJhc2UiPjxwYXRoIGQ9Ik0xMi4yNTguMDAxbC4yNTYuMDA0LjI1NS4wMDUuMjUzLjAwOC4yNTEuMDEuMjQ5LjAxMi4yNDcuMDE1LjI0Ni4wMTYuMjQyLjAxOS4yNDEuMDIuMjM5LjAyMy4yMzYuMDI0LjIzMy4wMjcuMjMxLjAyOC4yMjkuMDMxLjIyNS4wMzIuMjIzLjAzNC4yMi4wMzYuMjE3LjAzOC4yMTQuMDQuMjExLjA0MS4yMDguMDQzLjIwNS4wNDUuMjAxLjA0Ni4xOTguMDQ4LjE5NC4wNS4xOTEuMDUxLjE4Ny4wNTMuMTgzLjA1NC4xOC4wNTYuMTc1LjA1Ny4xNzIuMDU5LjE2OC4wNi4xNjMuMDYxLjE2LjA2My4xNTUuMDY0LjE1LjA2Ni4wNzQuMDMzLjA3My4wMzMuMDcxLjAzNC4wNy4wMzQuMDY5LjAzNS4wNjguMDM1LjA2Ny4wMzUuMDY2LjAzNS4wNjQuMDM2LjA2NC4wMzYuMDYyLjAzNi4wNi4wMzYuMDYuMDM3LjA1OC4wMzcuMDU4LjAzNy4wNTUuMDM4LjA1NS4wMzguMDUzLjAzOC4wNTIuMDM4LjA1MS4wMzkuMDUuMDM5LjA0OC4wMzkuMDQ3LjAzOS4wNDUuMDQuMDQ0LjA0LjA0My4wNC4wNDEuMDQuMDQuMDQxLjAzOS4wNDEuMDM3LjA0MS4wMzYuMDQxLjAzNC4wNDEuMDMzLjA0Mi4wMzIuMDQyLjAzLjA0Mi4wMjkuMDQyLjAyNy4wNDIuMDI2LjA0My4wMjQuMDQzLjAyMy4wNDMuMDIxLjA0My4wMi4wNDMuMDE4LjA0NC4wMTcuMDQzLjAxNS4wNDQuMDEzLjA0NC4wMTIuMDQ0LjAxMS4wNDUuMDA5LjA0NC4wMDcuMDQ1LjAwNi4wNDUuMDA0LjA0NS4wMDIuMDQ1LjAwMS4wNDV2MTdsLS4wMDEuMDQ1LS4wMDIuMDQ1LS4wMDQuMDQ1LS4wMDYuMDQ1LS4wMDcuMDQ1LS4wMDkuMDQ0LS4wMTEuMDQ1LS4wMTIuMDQ0LS4wMTMuMDQ0LS4wMTUuMDQ0LS4wMTcuMDQzLS4wMTguMDQ0LS4wMi4wNDMtLjAyMS4wNDMtLjAyMy4wNDMtLjAyNC4wNDMtLjAyNi4wNDMtLjAyNy4wNDItLjAyOS4wNDItLjAzLjA0Mi0uMDMyLjA0Mi0uMDMzLjA0Mi0uMDM0LjA0MS0uMDM2LjA0MS0uMDM3LjA0MS0uMDM5LjA0MS0uMDQuMDQxLS4wNDEuMDQtLjA0My4wNC0uMDQ0LjA0LS4wNDUuMDQtLjA0Ny4wMzktLjA0OC4wMzktLjA1LjAzOS0uMDUxLjAzOS0uMDUyLjAzOC0uMDUzLjAzOC0uMDU1LjAzOC0uMDU1LjAzOC0uMDU4LjAzNy0uMDU4LjAzNy0uMDYuMDM3LS4wNi4wMzYtLjA2Mi4wMzYtLjA2NC4wMzYtLjA2NC4wMzYtLjA2Ni4wMzUtLjA2Ny4wMzUtLjA2OC4wMzUtLjA2OS4wMzUtLjA3LjAzNC0uMDcxLjAzNC0uMDczLjAzMy0uMDc0LjAzMy0uMTUuMDY2LS4xNTUuMDY0LS4xNi4wNjMtLjE2My4wNjEtLjE2OC4wNi0uMTcyLjA1OS0uMTc1LjA1Ny0uMTguMDU2LS4xODMuMDU0LS4xODcuMDUzLS4xOTEuMDUxLS4xOTQuMDUtLjE5OC4wNDgtLjIwMS4wNDYtLjIwNS4wNDUtLjIwOC4wNDMtLjIxMS4wNDEtLjIxNC4wNC0uMjE3LjAzOC0uMjIuMDM2LS4yMjMuMDM0LS4yMjUuMDMyLS4yMjkuMDMxLS4yMzEuMDI4LS4yMzMuMDI3LS4yMzYuMDI0LS4yMzkuMDIzLS4yNDEuMDItLjI0Mi4wMTktLjI0Ni4wMTYtLjI0Ny4wMTUtLjI0OS4wMTItLjI1MS4wMS0uMjUzLjAwOC0uMjU1LjAwNS0uMjU2LjAwNC0uMjU4LjAwMS0uMjU4LS4wMDEtLjI1Ni0uMDA0LS4yNTUtLjAwNS0uMjUzLS4wMDgtLjI1MS0uMDEtLjI0OS0uMDEyLS4yNDctLjAxNS0uMjQ1LS4wMTYtLjI0My0uMDE5LS4yNDEtLjAyLS4yMzgtLjAyMy0uMjM2LS4wMjQtLjIzNC0uMDI3LS4yMzEtLjAyOC0uMjI4LS4wMzEtLjIyNi0uMDMyLS4yMjMtLjAzNC0uMjItLjAzNi0uMjE3LS4wMzgtLjIxNC0uMDQtLjIxMS0uMDQxLS4yMDgtLjA0My0uMjA0LS4wNDUtLjIwMS0uMDQ2LS4xOTgtLjA0OC0uMTk1LS4wNS0uMTktLjA1MS0uMTg3LS4wNTMtLjE4NC0uMDU0LS4xNzktLjA1Ni0uMTc2LS4wNTctLjE3Mi0uMDU5LS4xNjctLjA2LS4xNjQtLjA2MS0uMTU5LS4wNjMtLjE1NS0uMDY0LS4xNTEtLjA2Ni0uMDc0LS4wMzMtLjA3Mi0uMDMzLS4wNzItLjAzNC0uMDctLjAzNC0uMDY5LS4wMzUtLjA2OC0uMDM1LS4wNjctLjAzNS0uMDY2LS4wMzUtLjA2NC0uMDM2LS4wNjMtLjAzNi0uMDYyLS4wMzYtLjA2MS0uMDM2LS4wNi0uMDM3LS4wNTgtLjAzNy0uMDU3LS4wMzctLjA1Ni0uMDM4LS4wNTUtLjAzOC0uMDUzLS4wMzgtLjA1Mi0uMDM4LS4wNTEtLjAzOS0uMDQ5LS4wMzktLjA0OS0uMDM5LS4wNDYtLjAzOS0uMDQ2LS4wNC0uMDQ0LS4wNC0uMDQzLS4wNC0uMDQxLS4wNC0uMDQtLjA0MS0uMDM5LS4wNDEtLjAzNy0uMDQxLS4wMzYtLjA0MS0uMDM0LS4wNDEtLjAzMy0uMDQyLS4wMzItLjA0Mi0uMDMtLjA0Mi0uMDI5LS4wNDItLjAyNy0uMDQyLS4wMjYtLjA0My0uMDI0LS4wNDMtLjAyMy0uMDQzLS4wMjEtLjA0My0uMDItLjA0My0uMDE4LS4wNDQtLjAxNy0uMDQzLS4wMTUtLjA0NC0uMDEzLS4wNDQtLjAxMi0uMDQ0LS4wMTEtLjA0NS0uMDA5LS4wNDQtLjAwNy0uMDQ1LS4wMDYtLjA0NS0uMDA0LS4wNDUtLjAwMi0uMDQ1LS4wMDEtLjA0NXYtMTdsLjAwMS0uMDQ1LjAwMi0uMDQ1LjAwNC0uMDQ1LjAwNi0uMDQ1LjAwNy0uMDQ1LjAwOS0uMDQ0LjAxMS0uMDQ1LjAxMi0uMDQ0LjAxMy0uMDQ0LjAxNS0uMDQ0LjAxNy0uMDQzLjAxOC0uMDQ0LjAyLS4wNDMuMDIxLS4wNDMuMDIzLS4wNDMuMDI0LS4wNDMuMDI2LS4wNDMuMDI3LS4wNDIuMDI5LS4wNDIuMDMtLjA0Mi4wMzItLjA0Mi4wMzMtLjA0Mi4wMzQtLjA0MS4wMzYtLjA0MS4wMzctLjA0MS4wMzktLjA0MS4wNC0uMDQxLjA0MS0uMDQuMDQzLS4wNC4wNDQtLjA0LjA0Ni0uMDQuMDQ2LS4wMzkuMDQ5LS4wMzkuMDQ5LS4wMzkuMDUxLS4wMzkuMDUyLS4wMzguMDUzLS4wMzguMDU1LS4wMzguMDU2LS4wMzguMDU3LS4wMzcuMDU4LS4wMzcuMDYtLjAzNy4wNjEtLjAzNi4wNjItLjAzNi4wNjMtLjAzNi4wNjQtLjAzNi4wNjYtLjAzNS4wNjctLjAzNS4wNjgtLjAzNS4wNjktLjAzNS4wNy0uMDM0LjA3Mi0uMDM0LjA3Mi0uMDMzLjA3NC0uMDMzLjE1MS0uMDY2LjE1NS0uMDY0LjE1OS0uMDYzLjE2NC0uMDYxLjE2Ny0uMDYuMTcyLS4wNTkuMTc2LS4wNTcuMTc5LS4wNTYuMTg0LS4wNTQuMTg3LS4wNTMuMTktLjA1MS4xOTUtLjA1LjE5OC0uMDQ4LjIwMS0uMDQ2LjIwNC0uMDQ1LjIwOC0uMDQzLjIxMS0uMDQxLjIxNC0uMDQuMjE3LS4wMzguMjItLjAzNi4yMjMtLjAzNC4yMjYtLjAzMi4yMjgtLjAzMS4yMzEtLjAyOC4yMzQtLjAyNy4yMzYtLjAyNC4yMzgtLjAyMy4yNDEtLjAyLjI0My0uMDE5LjI0NS0uMDE2LjI0Ny0uMDE1LjI0OS0uMDEyLjI1MS0uMDEuMjUzLS4wMDguMjU1LS4wMDUuMjU2LS4wMDQuMjU4LS4wMDEuMjU4LjAwMXptLTkuMjU4IDIwLjQ5OXYuMDFsLjAwMS4wMjEuMDAzLjAyMS4wMDQuMDIyLjAwNS4wMjEuMDA2LjAyMi4wMDcuMDIyLjAwOS4wMjMuMDEuMDIyLjAxMS4wMjMuMDEyLjAyMy4wMTMuMDIzLjAxNS4wMjMuMDE2LjAyNC4wMTcuMDIzLjAxOC4wMjQuMDE5LjAyNC4wMjEuMDI0LjAyMi4wMjUuMDIzLjAyNC4wMjQuMDI1LjA1Mi4wNDkuMDU2LjA1LjA2MS4wNTEuMDY2LjA1MS4wNy4wNTEuMDc1LjA1MS4wNzkuMDUyLjA4NC4wNTIuMDg4LjA1Mi4wOTIuMDUyLjA5Ny4wNTIuMTAyLjA1MS4xMDUuMDUyLjExLjA1Mi4xMTQuMDUxLjExOS4wNTEuMTIzLjA1MS4xMjcuMDUuMTMxLjA1LjEzNS4wNS4xMzkuMDQ4LjE0NC4wNDkuMTQ3LjA0Ny4xNTIuMDQ3LjE1NS4wNDcuMTYuMDQ1LjE2My4wNDUuMTY3LjA0My4xNzEuMDQzLjE3Ni4wNDEuMTc4LjA0MS4xODMuMDM5LjE4Ny4wMzkuMTkuMDM3LjE5NC4wMzUuMTk3LjAzNS4yMDIuMDMzLjIwNC4wMzEuMjA5LjAzLjIxMi4wMjkuMjE2LjAyNy4yMTkuMDI1LjIyMi4wMjQuMjI2LjAyMS4yMy4wMi4yMzMuMDE4LjIzNi4wMTYuMjQuMDE1LjI0My4wMTIuMjQ2LjAxLjI0OS4wMDguMjUzLjAwNS4yNTYuMDA0LjI1OS4wMDEuMjYtLjAwMS4yNTctLjAwNC4yNTQtLjAwNS4yNS0uMDA4LjI0Ny0uMDExLjI0NC0uMDEyLjI0MS0uMDE0LjIzNy0uMDE2LjIzMy0uMDE4LjIzMS0uMDIxLjIyNi0uMDIxLjIyNC0uMDI0LjIyLS4wMjYuMjE2LS4wMjcuMjEyLS4wMjguMjEtLjAzMS4yMDUtLjAzMS4yMDItLjAzNC4xOTgtLjAzNC4xOTQtLjAzNi4xOTEtLjAzNy4xODctLjAzOS4xODMtLjA0LjE3OS0uMDQuMTc1LS4wNDIuMTcyLS4wNDMuMTY4LS4wNDQuMTYzLS4wNDUuMTYtLjA0Ni4xNTUtLjA0Ni4xNTItLjA0Ny4xNDgtLjA0OC4xNDMtLjA0OS4xMzktLjA0OS4xMzYtLjA1LjEzMS0uMDUuMTI2LS4wNS4xMjMtLjA1MS4xMTgtLjA1Mi4xMTQtLjA1MS4xMS0uMDUyLjEwNi0uMDUyLjEwMS0uMDUyLjA5Ni0uMDUyLjA5Mi0uMDUyLjA4OC0uMDUzLjA4My0uMDUxLjA3OS0uMDUyLjA3NC0uMDUyLjA3LS4wNTEuMDY1LS4wNTEuMDYtLjA1MS4wNTYtLjA1LjA1MS0uMDUuMDIzLS4wMjQuMDIzLS4wMjUuMDIxLS4wMjQuMDItLjAyNC4wMTktLjAyNC4wMTgtLjAyNC4wMTctLjAyNC4wMTUtLjAyMy4wMTQtLjAyNC4wMTMtLjAyMy4wMTItLjAyMy4wMS0uMDIzLjAxLS4wMjIuMDA4LS4wMjIuMDA2LS4wMjIuMDA2LS4wMjIuMDA0LS4wMjIuMDA0LS4wMjEuMDAxLS4wMjEuMDAxLS4wMjF2LTQuMTI3bC0uMDc3LjA1NS0uMDguMDUzLS4wODMuMDU0LS4wODUuMDUzLS4wODcuMDUyLS4wOS4wNTItLjA5My4wNTEtLjA5NS4wNS0uMDk3LjA1LS4xLjA0OS0uMTAyLjA0OS0uMTA1LjA0OC0uMTA2LjA0Ny0uMTA5LjA0Ny0uMTExLjA0Ni0uMTE0LjA0NS0uMTE1LjA0NS0uMTE4LjA0NC0uMTIuMDQzLS4xMjIuMDQyLS4xMjQuMDQyLS4xMjYuMDQxLS4xMjguMDQtLjEzLjA0LS4xMzIuMDM4LS4xMzQuMDM4LS4xMzUuMDM3LS4xMzguMDM3LS4xMzkuMDM1LS4xNDIuMDM1LS4xNDMuMDM0LS4xNDQuMDMzLS4xNDcuMDMyLS4xNDguMDMxLS4xNS4wMy0uMTUxLjAzLS4xNTMuMDI5LS4xNTQuMDI3LS4xNTYuMDI3LS4xNTguMDI2LS4xNTkuMDI1LS4xNjEuMDI0LS4xNjIuMDIzLS4xNjMuMDIyLS4xNjUuMDIxLS4xNjYuMDItLjE2Ny4wMTktLjE2OS4wMTgtLjE2OS4wMTctLjE3MS4wMTYtLjE3My4wMTUtLjE3My4wMTQtLjE3NS4wMTMtLjE3NS4wMTItLjE3Ny4wMTEtLjE3OC4wMS0uMTc5LjAwOC0uMTc5LjAwOC0uMTgxLjAwNi0uMTgyLjAwNS0uMTgyLjAwNC0uMTg0LjAwMy0uMTg0LjAwMmgtLjM3bC0uMTg0LS4wMDItLjE4NC0uMDAzLS4xODItLjAwNC0uMTgyLS4wMDUtLjE4MS0uMDA2LS4xNzktLjAwOC0uMTc5LS4wMDgtLjE3OC0uMDEtLjE3Ni0uMDExLS4xNzYtLjAxMi0uMTc1LS4wMTMtLjE3My0uMDE0LS4xNzItLjAxNS0uMTcxLS4wMTYtLjE3LS4wMTctLjE2OS0uMDE4LS4xNjctLjAxOS0uMTY2LS4wMi0uMTY1LS4wMjEtLjE2My0uMDIyLS4xNjItLjAyMy0uMTYxLS4wMjQtLjE1OS0uMDI1LS4xNTctLjAyNi0uMTU2LS4wMjctLjE1NS0uMDI3LS4xNTMtLjAyOS0uMTUxLS4wMy0uMTUtLjAzLS4xNDgtLjAzMS0uMTQ2LS4wMzItLjE0NS0uMDMzLS4xNDMtLjAzNC0uMTQxLS4wMzUtLjE0LS4wMzUtLjEzNy0uMDM3LS4xMzYtLjAzNy0uMTM0LS4wMzgtLjEzMi0uMDM4LS4xMy0uMDQtLjEyOC0uMDQtLjEyNi0uMDQxLS4xMjQtLjA0Mi0uMTIyLS4wNDItLjEyLS4wNDQtLjExNy0uMDQzLS4xMTYtLjA0NS0uMTEzLS4wNDUtLjExMi0uMDQ2LS4xMDktLjA0Ny0uMTA2LS4wNDctLjEwNS0uMDQ4LS4xMDItLjA0OS0uMS0uMDQ5LS4wOTctLjA1LS4wOTUtLjA1LS4wOTMtLjA1Mi0uMDktLjA1MS0uMDg3LS4wNTItLjA4NS0uMDUzLS4wODMtLjA1NC0uMDgtLjA1NC0uMDc3LS4wNTR2NC4xMjd6bTAtNS42NTR2LjAxMWwuMDAxLjAyMS4wMDMuMDIxLjAwNC4wMjEuMDA1LjAyMi4wMDYuMDIyLjAwNy4wMjIuMDA5LjAyMi4wMS4wMjIuMDExLjAyMy4wMTIuMDIzLjAxMy4wMjMuMDE1LjAyNC4wMTYuMDIzLjAxNy4wMjQuMDE4LjAyNC4wMTkuMDI0LjAyMS4wMjQuMDIyLjAyNC4wMjMuMDI1LjAyNC4wMjQuMDUyLjA1LjA1Ni4wNS4wNjEuMDUuMDY2LjA1MS4wNy4wNTEuMDc1LjA1Mi4wNzkuMDUxLjA4NC4wNTIuMDg4LjA1Mi4wOTIuMDUyLjA5Ny4wNTIuMTAyLjA1Mi4xMDUuMDUyLjExLjA1MS4xMTQuMDUxLjExOS4wNTIuMTIzLjA1LjEyNy4wNTEuMTMxLjA1LjEzNS4wNDkuMTM5LjA0OS4xNDQuMDQ4LjE0Ny4wNDguMTUyLjA0Ny4xNTUuMDQ2LjE2LjA0NS4xNjMuMDQ1LjE2Ny4wNDQuMTcxLjA0Mi4xNzYuMDQyLjE3OC4wNC4xODMuMDQuMTg3LjAzOC4xOS4wMzcuMTk0LjAzNi4xOTcuMDM0LjIwMi4wMzMuMjA0LjAzMi4yMDkuMDMuMjEyLjAyOC4yMTYuMDI3LjIxOS4wMjUuMjIyLjAyNC4yMjYuMDIyLjIzLjAyLjIzMy4wMTguMjM2LjAxNi4yNC4wMTQuMjQzLjAxMi4yNDYuMDEuMjQ5LjAwOC4yNTMuMDA2LjI1Ni4wMDMuMjU5LjAwMS4yNi0uMDAxLjI1Ny0uMDAzLjI1NC0uMDA2LjI1LS4wMDguMjQ3LS4wMS4yNDQtLjAxMi4yNDEtLjAxNS4yMzctLjAxNi4yMzMtLjAxOC4yMzEtLjAyLjIyNi0uMDIyLjIyNC0uMDI0LjIyLS4wMjUuMjE2LS4wMjcuMjEyLS4wMjkuMjEtLjAzLjIwNS0uMDMyLjIwMi0uMDMzLjE5OC0uMDM1LjE5NC0uMDM2LjE5MS0uMDM3LjE4Ny0uMDM5LjE4My0uMDM5LjE3OS0uMDQxLjE3NS0uMDQyLjE3Mi0uMDQzLjE2OC0uMDQ0LjE2My0uMDQ1LjE2LS4wNDUuMTU1LS4wNDcuMTUyLS4wNDcuMTQ4LS4wNDguMTQzLS4wNDguMTM5LS4wNS4xMzYtLjA0OS4xMzEtLjA1LjEyNi0uMDUxLjEyMy0uMDUxLjExOC0uMDUxLjExNC0uMDUyLjExLS4wNTIuMTA2LS4wNTIuMTAxLS4wNTIuMDk2LS4wNTIuMDkyLS4wNTIuMDg4LS4wNTIuMDgzLS4wNTIuMDc5LS4wNTIuMDc0LS4wNTEuMDctLjA1Mi4wNjUtLjA1MS4wNi0uMDUuMDU2LS4wNTEuMDUxLS4wNDkuMDIzLS4wMjUuMDIzLS4wMjQuMDIxLS4wMjUuMDItLjAyNC4wMTktLjAyNC4wMTgtLjAyNC4wMTctLjAyNC4wMTUtLjAyMy4wMTQtLjAyMy4wMTMtLjAyNC4wMTItLjAyMi4wMS0uMDIzLjAxLS4wMjMuMDA4LS4wMjIuMDA2LS4wMjIuMDA2LS4wMjIuMDA0LS4wMjEuMDA0LS4wMjIuMDAxLS4wMjEuMDAxLS4wMjF2LTQuMTM5bC0uMDc3LjA1NC0uMDguMDU0LS4wODMuMDU0LS4wODUuMDUyLS4wODcuMDUzLS4wOS4wNTEtLjA5My4wNTEtLjA5NS4wNTEtLjA5Ny4wNS0uMS4wNDktLjEwMi4wNDktLjEwNS4wNDgtLjEwNi4wNDctLjEwOS4wNDctLjExMS4wNDYtLjExNC4wNDUtLjExNS4wNDQtLjExOC4wNDQtLjEyLjA0NC0uMTIyLjA0Mi0uMTI0LjA0Mi0uMTI2LjA0MS0uMTI4LjA0LS4xMy4wMzktLjEzMi4wMzktLjEzNC4wMzgtLjEzNS4wMzctLjEzOC4wMzYtLjEzOS4wMzYtLjE0Mi4wMzUtLjE0My4wMzMtLjE0NC4wMzMtLjE0Ny4wMzMtLjE0OC4wMzEtLjE1LjAzLS4xNTEuMDMtLjE1My4wMjgtLjE1NC4wMjgtLjE1Ni4wMjctLjE1OC4wMjYtLjE1OS4wMjUtLjE2MS4wMjQtLjE2Mi4wMjMtLjE2My4wMjItLjE2NS4wMjEtLjE2Ni4wMi0uMTY3LjAxOS0uMTY5LjAxOC0uMTY5LjAxNy0uMTcxLjAxNi0uMTczLjAxNS0uMTczLjAxNC0uMTc1LjAxMy0uMTc1LjAxMi0uMTc3LjAxMS0uMTc4LjAwOS0uMTc5LjAwOS0uMTc5LjAwNy0uMTgxLjAwNy0uMTgyLjAwNS0uMTgyLjAwNC0uMTg0LjAwMy0uMTg0LjAwMmgtLjM3bC0uMTg0LS4wMDItLjE4NC0uMDAzLS4xODItLjAwNC0uMTgyLS4wMDUtLjE4MS0uMDA3LS4xNzktLjAwNy0uMTc5LS4wMDktLjE3OC0uMDA5LS4xNzYtLjAxMS0uMTc2LS4wMTItLjE3NS0uMDEzLS4xNzMtLjAxNC0uMTcyLS4wMTUtLjE3MS0uMDE2LS4xNy0uMDE3LS4xNjktLjAxOC0uMTY3LS4wMTktLjE2Ni0uMDItLjE2NS0uMDIxLS4xNjMtLjAyMi0uMTYyLS4wMjMtLjE2MS0uMDI0LS4xNTktLjAyNS0uMTU3LS4wMjYtLjE1Ni0uMDI3LS4xNTUtLjAyOC0uMTUzLS4wMjgtLjE1MS0uMDMtLjE1LS4wMy0uMTQ4LS4wMzEtLjE0Ni0uMDMzLS4xNDUtLjAzMy0uMTQzLS4wMzMtLjE0MS0uMDM1LS4xNC0uMDM2LS4xMzctLjAzNi0uMTM2LS4wMzctLjEzNC0uMDM4LS4xMzItLjAzOS0uMTMtLjAzOS0uMTI4LS4wNC0uMTI2LS4wNDEtLjEyNC0uMDQyLS4xMjItLjA0My0uMTItLjA0My0uMTE3LS4wNDQtLjExNi0uMDQ0LS4xMTMtLjA0Ni0uMTEyLS4wNDYtLjEwOS0uMDQ2LS4xMDYtLjA0Ny0uMTA1LS4wNDgtLjEwMi0uMDQ5LS4xLS4wNDktLjA5Ny0uMDUtLjA5NS0uMDUxLS4wOTMtLjA1MS0uMDktLjA1MS0uMDg3LS4wNTMtLjA4NS0uMDUyLS4wODMtLjA1NC0uMDgtLjA1NC0uMDc3LS4wNTR2NC4xMzl6bTAtNS42NjZ2LjAxMWwuMDAxLjAyLjAwMy4wMjIuMDA0LjAyMS4wMDUuMDIyLjAwNi4wMjEuMDA3LjAyMi4wMDkuMDIzLjAxLjAyMi4wMTEuMDIzLjAxMi4wMjMuMDEzLjAyMy4wMTUuMDIzLjAxNi4wMjQuMDE3LjAyNC4wMTguMDIzLjAxOS4wMjQuMDIxLjAyNS4wMjIuMDI0LjAyMy4wMjQuMDI0LjAyNS4wNTIuMDUuMDU2LjA1LjA2MS4wNS4wNjYuMDUxLjA3LjA1MS4wNzUuMDUyLjA3OS4wNTEuMDg0LjA1Mi4wODguMDUyLjA5Mi4wNTIuMDk3LjA1Mi4xMDIuMDUyLjEwNS4wNTEuMTEuMDUyLjExNC4wNTEuMTE5LjA1MS4xMjMuMDUxLjEyNy4wNS4xMzEuMDUuMTM1LjA1LjEzOS4wNDkuMTQ0LjA0OC4xNDcuMDQ4LjE1Mi4wNDcuMTU1LjA0Ni4xNi4wNDUuMTYzLjA0NS4xNjcuMDQzLjE3MS4wNDMuMTc2LjA0Mi4xNzguMDQuMTgzLjA0LjE4Ny4wMzguMTkuMDM3LjE5NC4wMzYuMTk3LjAzNC4yMDIuMDMzLjIwNC4wMzIuMjA5LjAzLjIxMi4wMjguMjE2LjAyNy4yMTkuMDI1LjIyMi4wMjQuMjI2LjAyMS4yMy4wMi4yMzMuMDE4LjIzNi4wMTcuMjQuMDE0LjI0My4wMTIuMjQ2LjAxLjI0OS4wMDguMjUzLjAwNi4yNTYuMDAzLjI1OS4wMDEuMjYtLjAwMS4yNTctLjAwMy4yNTQtLjAwNi4yNS0uMDA4LjI0Ny0uMDEuMjQ0LS4wMTMuMjQxLS4wMTQuMjM3LS4wMTYuMjMzLS4wMTguMjMxLS4wMi4yMjYtLjAyMi4yMjQtLjAyNC4yMi0uMDI1LjIxNi0uMDI3LjIxMi0uMDI5LjIxLS4wMy4yMDUtLjAzMi4yMDItLjAzMy4xOTgtLjAzNS4xOTQtLjAzNi4xOTEtLjAzNy4xODctLjAzOS4xODMtLjAzOS4xNzktLjA0MS4xNzUtLjA0Mi4xNzItLjA0My4xNjgtLjA0NC4xNjMtLjA0NS4xNi0uMDQ1LjE1NS0uMDQ3LjE1Mi0uMDQ3LjE0OC0uMDQ4LjE0My0uMDQ5LjEzOS0uMDQ5LjEzNi0uMDQ5LjEzMS0uMDUxLjEyNi0uMDUuMTIzLS4wNTEuMTE4LS4wNTIuMTE0LS4wNTEuMTEtLjA1Mi4xMDYtLjA1Mi4xMDEtLjA1Mi4wOTYtLjA1Mi4wOTItLjA1Mi4wODgtLjA1Mi4wODMtLjA1Mi4wNzktLjA1Mi4wNzQtLjA1Mi4wNy0uMDUxLjA2NS0uMDUxLjA2LS4wNTEuMDU2LS4wNS4wNTEtLjA0OS4wMjMtLjAyNS4wMjMtLjAyNS4wMjEtLjAyNC4wMi0uMDI0LjAxOS0uMDI0LjAxOC0uMDI0LjAxNy0uMDI0LjAxNS0uMDIzLjAxNC0uMDI0LjAxMy0uMDIzLjAxMi0uMDIzLjAxLS4wMjIuMDEtLjAyMy4wMDgtLjAyMi4wMDYtLjAyMi4wMDYtLjAyMi4wMDQtLjAyMi4wMDQtLjAyMS4wMDEtLjAyMS4wMDEtLjAyMXYtNC4xNTNsLS4wNzcuMDU0LS4wOC4wNTQtLjA4My4wNTMtLjA4NS4wNTMtLjA4Ny4wNTMtLjA5LjA1MS0uMDkzLjA1MS0uMDk1LjA1MS0uMDk3LjA1LS4xLjA0OS0uMTAyLjA0OC0uMTA1LjA0OC0uMTA2LjA0OC0uMTA5LjA0Ni0uMTExLjA0Ni0uMTE0LjA0Ni0uMTE1LjA0NC0uMTE4LjA0NC0uMTIuMDQzLS4xMjIuMDQzLS4xMjQuMDQyLS4xMjYuMDQxLS4xMjguMDQtLjEzLjAzOS0uMTMyLjAzOS0uMTM0LjAzOC0uMTM1LjAzNy0uMTM4LjAzNi0uMTM5LjAzNi0uMTQyLjAzNC0uMTQzLjAzNC0uMTQ0LjAzMy0uMTQ3LjAzMi0uMTQ4LjAzMi0uMTUuMDMtLjE1MS4wMy0uMTUzLjAyOC0uMTU0LjAyOC0uMTU2LjAyNy0uMTU4LjAyNi0uMTU5LjAyNC0uMTYxLjAyNC0uMTYyLjAyMy0uMTYzLjAyMy0uMTY1LjAyMS0uMTY2LjAyLS4xNjcuMDE5LS4xNjkuMDE4LS4xNjkuMDE3LS4xNzEuMDE2LS4xNzMuMDE1LS4xNzMuMDE0LS4xNzUuMDEzLS4xNzUuMDEyLS4xNzcuMDEtLjE3OC4wMS0uMTc5LjAwOS0uMTc5LjAwNy0uMTgxLjAwNi0uMTgyLjAwNi0uMTgyLjAwNC0uMTg0LjAwMy0uMTg0LjAwMS0uMTg1LjAwMS0uMTg1LS4wMDEtLjE4NC0uMDAxLS4xODQtLjAwMy0uMTgyLS4wMDQtLjE4Mi0uMDA2LS4xODEtLjAwNi0uMTc5LS4wMDctLjE3OS0uMDA5LS4xNzgtLjAxLS4xNzYtLjAxLS4xNzYtLjAxMi0uMTc1LS4wMTMtLjE3My0uMDE0LS4xNzItLjAxNS0uMTcxLS4wMTYtLjE3LS4wMTctLjE2OS0uMDE4LS4xNjctLjAxOS0uMTY2LS4wMi0uMTY1LS4wMjEtLjE2My0uMDIzLS4xNjItLjAyMy0uMTYxLS4wMjQtLjE1OS0uMDI0LS4xNTctLjAyNi0uMTU2LS4wMjctLjE1NS0uMDI4LS4xNTMtLjAyOC0uMTUxLS4wMy0uMTUtLjAzLS4xNDgtLjAzMi0uMTQ2LS4wMzItLjE0NS0uMDMzLS4xNDMtLjAzNC0uMTQxLS4wMzQtLjE0LS4wMzYtLjEzNy0uMDM2LS4xMzYtLjAzNy0uMTM0LS4wMzgtLjEzMi0uMDM5LS4xMy0uMDM5LS4xMjgtLjA0MS0uMTI2LS4wNDEtLjEyNC0uMDQxLS4xMjItLjA0My0uMTItLjA0My0uMTE3LS4wNDQtLjExNi0uMDQ0LS4xMTMtLjA0Ni0uMTEyLS4wNDYtLjEwOS0uMDQ2LS4xMDYtLjA0OC0uMTA1LS4wNDgtLjEwMi0uMDQ4LS4xLS4wNS0uMDk3LS4wNDktLjA5NS0uMDUxLS4wOTMtLjA1MS0uMDktLjA1Mi0uMDg3LS4wNTItLjA4NS0uMDUzLS4wODMtLjA1My0uMDgtLjA1NC0uMDc3LS4wNTR2NC4xNTN6bTguNzQtOC4xNzlsLS4yNTcuMDA0LS4yNTQuMDA1LS4yNS4wMDgtLjI0Ny4wMTEtLjI0NC4wMTItLjI0MS4wMTQtLjIzNy4wMTYtLjIzMy4wMTgtLjIzMS4wMjEtLjIyNi4wMjItLjIyNC4wMjMtLjIyLjAyNi0uMjE2LjAyNy0uMjEyLjAyOC0uMjEuMDMxLS4yMDUuMDMyLS4yMDIuMDMzLS4xOTguMDM0LS4xOTQuMDM2LS4xOTEuMDM4LS4xODcuMDM4LS4xODMuMDQtLjE3OS4wNDEtLjE3NS4wNDItLjE3Mi4wNDMtLjE2OC4wNDMtLjE2My4wNDUtLjE2LjA0Ni0uMTU1LjA0Ni0uMTUyLjA0OC0uMTQ4LjA0OC0uMTQzLjA0OC0uMTM5LjA0OS0uMTM2LjA1LS4xMzEuMDUtLjEyNi4wNTEtLjEyMy4wNTEtLjExOC4wNTEtLjExNC4wNTItLjExLjA1Mi0uMTA2LjA1Mi0uMTAxLjA1Mi0uMDk2LjA1Mi0uMDkyLjA1Mi0uMDg4LjA1Mi0uMDgzLjA1Mi0uMDc5LjA1Mi0uMDc0LjA1MS0uMDcuMDUyLS4wNjUuMDUxLS4wNi4wNS0uMDU2LjA1LS4wNTEuMDUtLjAyMy4wMjUtLjAyMy4wMjQtLjAyMS4wMjQtLjAyLjAyNS0uMDE5LjAyNC0uMDE4LjAyNC0uMDE3LjAyMy0uMDE1LjAyNC0uMDE0LjAyMy0uMDEzLjAyMy0uMDEyLjAyMy0uMDEuMDIzLS4wMS4wMjItLjAwOC4wMjItLjAwNi4wMjMtLjAwNi4wMjEtLjAwNC4wMjItLjAwNC4wMjEtLjAwMS4wMjEtLjAwMS4wMjEuMDAxLjAyMS4wMDEuMDIxLjAwNC4wMjEuMDA0LjAyMi4wMDYuMDIxLjAwNi4wMjMuMDA4LjAyMi4wMS4wMjIuMDEuMDIzLjAxMi4wMjMuMDEzLjAyMy4wMTQuMDIzLjAxNS4wMjQuMDE3LjAyMy4wMTguMDI0LjAxOS4wMjQuMDIuMDI1LjAyMS4wMjQuMDIzLjAyNC4wMjMuMDI1LjA1MS4wNS4wNTYuMDUuMDYuMDUuMDY1LjA1MS4wNy4wNTIuMDc0LjA1MS4wNzkuMDUyLjA4My4wNTIuMDg4LjA1Mi4wOTIuMDUyLjA5Ni4wNTIuMTAxLjA1Mi4xMDYuMDUyLjExLjA1Mi4xMTQuMDUyLjExOC4wNTEuMTIzLjA1MS4xMjYuMDUxLjEzMS4wNS4xMzYuMDUuMTM5LjA0OS4xNDMuMDQ4LjE0OC4wNDguMTUyLjA0OC4xNTUuMDQ2LjE2LjA0Ni4xNjMuMDQ1LjE2OC4wNDMuMTcyLjA0My4xNzUuMDQyLjE3OS4wNDEuMTgzLjA0LjE4Ny4wMzguMTkxLjAzOC4xOTQuMDM2LjE5OC4wMzQuMjAyLjAzMy4yMDUuMDMyLjIxLjAzMS4yMTIuMDI4LjIxNi4wMjcuMjIuMDI2LjIyNC4wMjMuMjI2LjAyMi4yMzEuMDIxLjIzMy4wMTguMjM3LjAxNi4yNDEuMDE0LjI0NC4wMTIuMjQ3LjAxMS4yNS4wMDguMjU0LjAwNS4yNTcuMDA0LjI2LjAwMS4yNi0uMDAxLjI1Ny0uMDA0LjI1NC0uMDA1LjI1LS4wMDguMjQ3LS4wMTEuMjQ0LS4wMTIuMjQxLS4wMTQuMjM3LS4wMTYuMjMzLS4wMTguMjMxLS4wMjEuMjI2LS4wMjIuMjI0LS4wMjMuMjItLjAyNi4yMTYtLjAyNy4yMTItLjAyOC4yMS0uMDMxLjIwNS0uMDMyLjIwMi0uMDMzLjE5OC0uMDM0LjE5NC0uMDM2LjE5MS0uMDM4LjE4Ny0uMDM4LjE4My0uMDQuMTc5LS4wNDEuMTc1LS4wNDIuMTcyLS4wNDMuMTY4LS4wNDMuMTYzLS4wNDUuMTYtLjA0Ni4xNTUtLjA0Ni4xNTItLjA0OC4xNDgtLjA0OC4xNDMtLjA0OC4xMzktLjA0OS4xMzYtLjA1LjEzMS0uMDUuMTI2LS4wNTEuMTIzLS4wNTEuMTE4LS4wNTEuMTE0LS4wNTIuMTEtLjA1Mi4xMDYtLjA1Mi4xMDEtLjA1Mi4wOTYtLjA1Mi4wOTItLjA1Mi4wODgtLjA1Mi4wODMtLjA1Mi4wNzktLjA1Mi4wNzQtLjA1MS4wNy0uMDUyLjA2NS0uMDUxLjA2LS4wNS4wNTYtLjA1LjA1MS0uMDUuMDIzLS4wMjUuMDIzLS4wMjQuMDIxLS4wMjQuMDItLjAyNS4wMTktLjAyNC4wMTgtLjAyNC4wMTctLjAyMy4wMTUtLjAyNC4wMTQtLjAyMy4wMTMtLjAyMy4wMTItLjAyMy4wMS0uMDIzLjAxLS4wMjIuMDA4LS4wMjIuMDA2LS4wMjMuMDA2LS4wMjEuMDA0LS4wMjIuMDA0LS4wMjEuMDAxLS4wMjEuMDAxLS4wMjEtLjAwMS0uMDIxLS4wMDEtLjAyMS0uMDA0LS4wMjEtLjAwNC0uMDIyLS4wMDYtLjAyMS0uMDA2LS4wMjMtLjAwOC0uMDIyLS4wMS0uMDIyLS4wMS0uMDIzLS4wMTItLjAyMy0uMDEzLS4wMjMtLjAxNC0uMDIzLS4wMTUtLjAyNC0uMDE3LS4wMjMtLjAxOC0uMDI0LS4wMTktLjAyNC0uMDItLjAyNS0uMDIxLS4wMjQtLjAyMy0uMDI0LS4wMjMtLjAyNS0uMDUxLS4wNS0uMDU2LS4wNS0uMDYtLjA1LS4wNjUtLjA1MS0uMDctLjA1Mi0uMDc0LS4wNTEtLjA3OS0uMDUyLS4wODMtLjA1Mi0uMDg4LS4wNTItLjA5Mi0uMDUyLS4wOTYtLjA1Mi0uMTAxLS4wNTItLjEwNi0uMDUyLS4xMS0uMDUyLS4xMTQtLjA1Mi0uMTE4LS4wNTEtLjEyMy0uMDUxLS4xMjYtLjA1MS0uMTMxLS4wNS0uMTM2LS4wNS0uMTM5LS4wNDktLjE0My0uMDQ4LS4xNDgtLjA0OC0uMTUyLS4wNDgtLjE1NS0uMDQ2LS4xNi0uMDQ2LS4xNjMtLjA0NS0uMTY4LS4wNDMtLjE3Mi0uMDQzLS4xNzUtLjA0Mi0uMTc5LS4wNDEtLjE4My0uMDQtLjE4Ny0uMDM4LS4xOTEtLjAzOC0uMTk0LS4wMzYtLjE5OC0uMDM0LS4yMDItLjAzMy0uMjA1LS4wMzItLjIxLS4wMzEtLjIxMi0uMDI4LS4yMTYtLjAyNy0uMjItLjAyNi0uMjI0LS4wMjMtLjIyNi0uMDIyLS4yMzEtLjAyMS0uMjMzLS4wMTgtLjIzNy0uMDE2LS4yNDEtLjAxNC0uMjQ0LS4wMTItLjI0Ny0uMDExLS4yNS0uMDA4LS4yNTQtLjAwNS0uMjU3LS4wMDQtLjI2LS4wMDEtLjI2LjAwMXoiIHRyYW5zZm9ybT0ic2NhbGUoLjUpIj48L3BhdGg+PC9zeW1ib2w+PC9kZWZzPjxkZWZzPjxzeW1ib2wgaGVpZ2h0PSIyNCIgd2lkdGg9IjI0IiBpZD0iY2xvY2siPjxwYXRoIGQ9Ik0xMiAyYzUuNTE0IDAgMTAgNC40ODYgMTAgMTBzLTQuNDg2IDEwLTEwIDEwLTEwLTQuNDg2LTEwLTEwIDQuNDg2LTEwIDEwLTEwem0wLTJjLTYuNjI3IDAtMTIgNS4zNzMtMTIgMTJzNS4zNzMgMTIgMTIgMTIgMTItNS4zNzMgMTItMTItNS4zNzMtMTItMTItMTJ6bTUuODQ4IDEyLjQ1OWMuMjAyLjAzOC4yMDIuMzMzLjAwMS4zNzItMS45MDcuMzYxLTYuMDQ1IDEuMTExLTYuNTQ3IDEuMTExLS43MTkgMC0xLjMwMS0uNTgyLTEuMzAxLTEuMzAxIDAtLjUxMi43Ny01LjQ0NyAxLjEyNS03LjQ0NS4wMzQtLjE5Mi4zMTItLjE4MS4zNDMuMDE0bC45ODUgNi4yMzggNS4zOTQgMS4wMTF6IiB0cmFuc2Zvcm09InNjYWxlKC41KSI+PC9wYXRoPjwvc3ltYm9sPjwvZGVmcz48Zz48bGluZSBzdHJva2U9IiM5OTkiIHN0cm9rZS13aWR0aD0iMC41cHgiIGNsYXNzPSIyMDAiIHkyPSIxNTEzIiB4Mj0iNzUiIHkxPSI1IiB4MT0iNzUiIGlkPSJhY3RvcjYiPjwvbGluZT48ZyBpZD0icm9vdC02Ij48cmVjdCBjbGFzcz0iYWN0b3IiIHJ5PSIzIiByeD0iMyIgaGVpZ2h0PSI2NSIgd2lkdGg9IjE1MCIgc3Ryb2tlPSIjNjY2IiBmaWxsPSIjZWFlYWVhIiB5PSIwIiB4PSIwIj48L3JlY3Q+PHRleHQgc3R5bGU9InRleHQtYW5jaG9yOiBtaWRkbGU7IGZvbnQtc2l6ZTogMTRweDsgZm9udC13ZWlnaHQ6IDQwMDsgZm9udC1mYW1pbHk6IE9wZW4tU2FucywgJnF1b3Q7c2Fucy1zZXJpZiZxdW90OzsiIGNsYXNzPSJhY3RvciIgYWxpZ25tZW50LWJhc2VsaW5lPSJjZW50cmFsIiBkb21pbmFudC1iYXNlbGluZT0iY2VudHJhbCIgeT0iMzIuNSIgeD0iNzUiPjx0c3BhbiBkeT0iMCIgeD0iNzUiPkNpdGl6ZW48L3RzcGFuPjwvdGV4dD48L2c+PC9nPjxnPjxsaW5lIHN0cm9rZT0iIzk5OSIgc3Ryb2tlLXdpZHRoPSIwLjVweCIgY2xhc3M9IjIwMCIgeTI9IjE1MTMiIHgyPSIzMjcuNSIgeTE9IjUiIHgxPSIzMjcuNSIgaWQ9ImFjdG9yNyI+PC9saW5lPjxnIGlkPSJyb290LTciPjxyZWN0IGNsYXNzPSJhY3RvciIgcnk9IjMiIHJ4PSIzIiBoZWlnaHQ9IjY1IiB3aWR0aD0iMTUwIiBzdHJva2U9IiM2NjYiIGZpbGw9IiNlYWVhZWEiIHk9IjAiIHg9IjI1Mi41Ij48L3JlY3Q+PHRleHQgc3R5bGU9InRleHQtYW5jaG9yOiBtaWRkbGU7IGZvbnQtc2l6ZTogMTRweDsgZm9udC13ZWlnaHQ6IDQwMDsgZm9udC1mYW1pbHk6IE9wZW4tU2FucywgJnF1b3Q7c2Fucy1zZXJpZiZxdW90OzsiIGNsYXNzPSJhY3RvciIgYWxpZ25tZW50LWJhc2VsaW5lPSJjZW50cmFsIiBkb21pbmFudC1iYXNlbGluZT0iY2VudHJhbCIgeT0iMzIuNSIgeD0iMzI3LjUiPjx0c3BhbiBkeT0iMCIgeD0iMzI3LjUiPm15R292IEFwcDwvdHNwYW4+PC90ZXh0PjwvZz48L2c+PGc+PGxpbmUgc3Ryb2tlPSIjOTk5IiBzdHJva2Utd2lkdGg9IjAuNXB4IiBjbGFzcz0iMjAwIiB5Mj0iMTUxMyIgeDI9IjYwOS41IiB5MT0iNSIgeDE9IjYwOS41IiBpZD0iYWN0b3I4Ij48L2xpbmU+PGcgaWQ9InJvb3QtOCI+PHJlY3QgY2xhc3M9ImFjdG9yIiByeT0iMyIgcng9IjMiIGhlaWdodD0iNjUiIHdpZHRoPSIxNTAiIHN0cm9rZT0iIzY2NiIgZmlsbD0iI2VhZWFlYSIgeT0iMCIgeD0iNTM0LjUiPjwvcmVjdD48dGV4dCBzdHlsZT0idGV4dC1hbmNob3I6IG1pZGRsZTsgZm9udC1zaXplOiAxNHB4OyBmb250LXdlaWdodDogNDAwOyBmb250LWZhbWlseTogT3Blbi1TYW5zLCAmcXVvdDtzYW5zLXNlcmlmJnF1b3Q7OyIgY2xhc3M9ImFjdG9yIiBhbGlnbm1lbnQtYmFzZWxpbmU9ImNlbnRyYWwiIGRvbWluYW50LWJhc2VsaW5lPSJjZW50cmFsIiB5PSIzMi41IiB4PSI2MDkuNSI+PHRzcGFuIGR5PSIwIiB4PSI2MDkuNSI+QXBwIFN0b3JhZ2U8L3RzcGFuPjwvdGV4dD48L2c+PC9nPjxnPjxsaW5lIHN0cm9rZT0iIzk5OSIgc3Ryb2tlLXdpZHRoPSIwLjVweCIgY2xhc3M9IjIwMCIgeTI9IjE1MTMiIHgyPSI4MDkuNSIgeTE9IjUiIHgxPSI4MDkuNSIgaWQ9ImFjdG9yOSI+PC9saW5lPjxnIGlkPSJyb290LTkiPjxyZWN0IGNsYXNzPSJhY3RvciIgcnk9IjMiIHJ4PSIzIiBoZWlnaHQ9IjY1IiB3aWR0aD0iMTUwIiBzdHJva2U9IiM2NjYiIGZpbGw9IiNlYWVhZWEiIHk9IjAiIHg9IjczNC41Ij48L3JlY3Q+PHRleHQgc3R5bGU9InRleHQtYW5jaG9yOiBtaWRkbGU7IGZvbnQtc2l6ZTogMTRweDsgZm9udC13ZWlnaHQ6IDQwMDsgZm9udC1mYW1pbHk6IE9wZW4tU2FucywgJnF1b3Q7c2Fucy1zZXJpZiZxdW90OzsiIGNsYXNzPSJhY3RvciIgYWxpZ25tZW50LWJhc2VsaW5lPSJjZW50cmFsIiBkb21pbmFudC1iYXNlbGluZT0iY2VudHJhbCIgeT0iMzIuNSIgeD0iODA5LjUiPjx0c3BhbiBkeT0iMCIgeD0iODA5LjUiPkFwcCBTZWN1cmUgRW5jbGF2ZTwvdHNwYW4+PC90ZXh0PjwvZz48L2c+PGc+PGxpbmUgc3Ryb2tlPSIjOTk5IiBzdHJva2Utd2lkdGg9IjAuNXB4IiBjbGFzcz0iMjAwIiB5Mj0iMTUxMyIgeDI9IjEwMDkuNSIgeTE9IjUiIHgxPSIxMDA5LjUiIGlkPSJhY3RvcjEwIj48L2xpbmU+PGcgaWQ9InJvb3QtMTAiPjxyZWN0IGNsYXNzPSJhY3RvciIgcnk9IjMiIHJ4PSIzIiBoZWlnaHQ9IjY1IiB3aWR0aD0iMTUwIiBzdHJva2U9IiM2NjYiIGZpbGw9IiNlYWVhZWEiIHk9IjAiIHg9IjkzNC41Ij48L3JlY3Q+PHRleHQgc3R5bGU9InRleHQtYW5jaG9yOiBtaWRkbGU7IGZvbnQtc2l6ZTogMTRweDsgZm9udC13ZWlnaHQ6IDQwMDsgZm9udC1mYW1pbHk6IE9wZW4tU2FucywgJnF1b3Q7c2Fucy1zZXJpZiZxdW90OzsiIGNsYXNzPSJhY3RvciIgYWxpZ25tZW50LWJhc2VsaW5lPSJjZW50cmFsIiBkb21pbmFudC1iYXNlbGluZT0iY2VudHJhbCIgeT0iMzIuNSIgeD0iMTAwOS41Ij48dHNwYW4gZHk9IjAiIHg9IjEwMDkuNSI+RW1iZWRkZWQgV2ViPC90c3Bhbj48L3RleHQ+PC9nPjwvZz48Zz48bGluZSBzdHJva2U9IiM5OTkiIHN0cm9rZS13aWR0aD0iMC41cHgiIGNsYXNzPSIyMDAiIHkyPSIxNTEzIiB4Mj0iMTMxOC41IiB5MT0iNSIgeDE9IjEzMTguNSIgaWQ9ImFjdG9yMTEiPjwvbGluZT48ZyBpZD0icm9vdC0xMSI+PHJlY3QgY2xhc3M9ImFjdG9yIiByeT0iMyIgcng9IjMiIGhlaWdodD0iNjUiIHdpZHRoPSIxNTAiIHN0cm9rZT0iIzY2NiIgZmlsbD0iI2VhZWFlYSIgeT0iMCIgeD0iMTI0My41Ij48L3JlY3Q+PHRleHQgc3R5bGU9InRleHQtYW5jaG9yOiBtaWRkbGU7IGZvbnQtc2l6ZTogMTRweDsgZm9udC13ZWlnaHQ6IDQwMDsgZm9udC1mYW1pbHk6IE9wZW4tU2FucywgJnF1b3Q7c2Fucy1zZXJpZiZxdW90OzsiIGNsYXNzPSJhY3RvciIgYWxpZ25tZW50LWJhc2VsaW5lPSJjZW50cmFsIiBkb21pbmFudC1iYXNlbGluZT0iY2VudHJhbCIgeT0iMzIuNSIgeD0iMTMxOC41Ij48dHNwYW4gZHk9IjAiIHg9IjEzMTguNSI+bXlHb3YgT0lEQzwvdHNwYW4+PC90ZXh0PjwvZz48L2c+PGRlZnM+PG1hcmtlciBvcmllbnQ9ImF1dG8iIG1hcmtlckhlaWdodD0iMTIiIG1hcmtlcldpZHRoPSIxMiIgbWFya2VyVW5pdHM9InVzZXJTcGFjZU9uVXNlIiByZWZZPSI1IiByZWZYPSI5IiBpZD0iYXJyb3doZWFkIj48cGF0aCBkPSJNIDAgMCBMIDEwIDUgTCAwIDEwIHoiPjwvcGF0aD48L21hcmtlcj48L2RlZnM+PGRlZnM+PG1hcmtlciByZWZZPSI0IiByZWZYPSIxNiIgb3JpZW50PSJhdXRvIiBtYXJrZXJIZWlnaHQ9IjgiIG1hcmtlcldpZHRoPSIxNSIgaWQ9ImNyb3NzaGVhZCI+PHBhdGggc3R5bGU9InN0cm9rZS1kYXNoYXJyYXk6IDAsIDA7IiBkPSJNIDksMiBWIDYgTDE2LDQgWiIgc3Ryb2tlLXdpZHRoPSIxcHgiIHN0cm9rZT0iIzAwMDAwMCIgZmlsbD0iYmxhY2siPjwvcGF0aD48cGF0aCBzdHlsZT0ic3Ryb2tlLWRhc2hhcnJheTogMCwgMDsiIGQ9Ik0gMCwxIEwgNiw3IE0gNiwxIEwgMCw3IiBzdHJva2Utd2lkdGg9IjFweCIgc3Ryb2tlPSIjMDAwMDAwIiBmaWxsPSJub25lIj48L3BhdGg+PC9tYXJrZXI+PC9kZWZzPjxkZWZzPjxtYXJrZXIgb3JpZW50PSJhdXRvIiBtYXJrZXJIZWlnaHQ9IjI4IiBtYXJrZXJXaWR0aD0iMjAiIHJlZlk9IjciIHJlZlg9IjE4IiBpZD0iZmlsbGVkLWhlYWQiPjxwYXRoIGQ9Ik0gMTgsNyBMOSwxMyBMMTQsNyBMOSwxIFoiPjwvcGF0aD48L21hcmtlcj48L2RlZnM+PGRlZnM+PG1hcmtlciBvcmllbnQ9ImF1dG8iIG1hcmtlckhlaWdodD0iNDAiIG1hcmtlcldpZHRoPSI2MCIgcmVmWT0iMTUiIHJlZlg9IjE1IiBpZD0ic2VxdWVuY2VudW1iZXIiPjxjaXJjbGUgcj0iNiIgY3k9IjE1IiBjeD0iMTUiPjwvY2lyY2xlPjwvbWFya2VyPjwvZGVmcz48Zz48cmVjdCBjbGFzcz0ibm90ZSIgcnk9IjAiIHJ4PSIwIiBoZWlnaHQ9IjcwIiB3aWR0aD0iMTU3IiBzdHJva2U9IiM2NjYiIGZpbGw9IiNFREYyQUUiIHk9IjI2NyIgeD0iMTI0MCI+PC9yZWN0Pjx0ZXh0IHN0eWxlPSJmb250LWZhbWlseTogJnF1b3Q7dHJlYnVjaGV0IG1zJnF1b3Q7LCB2ZXJkYW5hLCBhcmlhbDsgZm9udC1zaXplOiAxNHB4OyBmb250LXdlaWdodDogNDAwOyIgZHk9IjFlbSIgY2xhc3M9Im5vdGVUZXh0IiBhbGlnbm1lbnQtYmFzZWxpbmU9Im1pZGRsZSIgZG9taW5hbnQtYmFzZWxpbmU9Im1pZGRsZSIgdGV4dC1hbmNob3I9Im1pZGRsZSIgeT0iMjcyIiB4PSIxMzE5Ij48dHNwYW4geD0iMTMxOSI+UGFzcyB1bmlxdWUgZGV2aWNlX2lkPC90c3Bhbj48L3RleHQ+PHRleHQgc3R5bGU9ImZvbnQtZmFtaWx5OiAmcXVvdDt0cmVidWNoZXQgbXMmcXVvdDssIHZlcmRhbmEsIGFyaWFsOyBmb250LXNpemU6IDE0cHg7IGZvbnQtd2VpZ2h0OiA0MDA7IiBkeT0iMWVtIiBjbGFzcz0ibm90ZVRleHQiIGFsaWdubWVudC1iYXNlbGluZT0ibWlkZGxlIiBkb21pbmFudC1iYXNlbGluZT0ibWlkZGxlIiB0ZXh0LWFuY2hvcj0ibWlkZGxlIiB5PSIyODkiIHg9IjEzMTkiPjx0c3BhbiB4PSIxMzE5Ij5hbmQgZGV2aWNlX25hbWU8L3RzcGFuPjwvdGV4dD48dGV4dCBzdHlsZT0iZm9udC1mYW1pbHk6ICZxdW90O3RyZWJ1Y2hldCBtcyZxdW90OywgdmVyZGFuYSwgYXJpYWw7IGZvbnQtc2l6ZTogMTRweDsgZm9udC13ZWlnaHQ6IDQwMDsiIGR5PSIxZW0iIGNsYXNzPSJub3RlVGV4dCIgYWxpZ25tZW50LWJhc2VsaW5lPSJtaWRkbGUiIGRvbWluYW50LWJhc2VsaW5lPSJtaWRkbGUiIHRleHQtYW5jaG9yPSJtaWRkbGUiIHk9IjMwNSIgeD0iMTMxOSI+PHRzcGFuIHg9IjEzMTkiPiJKb2huJ3MgaVBob25lIjwvdHNwYW4+PC90ZXh0PjwvZz48Zz48cmVjdCBjbGFzcz0ibm90ZSIgcnk9IjAiIHJ4PSIwIiBoZWlnaHQ9IjcwIiB3aWR0aD0iMTUwIiBzdHJva2U9IiM2NjYiIGZpbGw9IiNFREYyQUUiIHk9IjQ1MyIgeD0iOTM0LjUiPjwvcmVjdD48dGV4dCBzdHlsZT0iZm9udC1mYW1pbHk6ICZxdW90O3RyZWJ1Y2hldCBtcyZxdW90OywgdmVyZGFuYSwgYXJpYWw7IGZvbnQtc2l6ZTogMTRweDsgZm9udC13ZWlnaHQ6IDQwMDsiIGR5PSIxZW0iIGNsYXNzPSJub3RlVGV4dCIgYWxpZ25tZW50LWJhc2VsaW5lPSJtaWRkbGUiIGRvbWluYW50LWJhc2VsaW5lPSJtaWRkbGUiIHRleHQtYW5jaG9yPSJtaWRkbGUiIHk9IjQ1OCIgeD0iMTAxMCI+PHRzcGFuIHg9IjEwMTAiPkxvZ3MgaW50byBteUdvdjwvdHNwYW4+PC90ZXh0Pjx0ZXh0IHN0eWxlPSJmb250LWZhbWlseTogJnF1b3Q7dHJlYnVjaGV0IG1zJnF1b3Q7LCB2ZXJkYW5hLCBhcmlhbDsgZm9udC1zaXplOiAxNHB4OyBmb250LXdlaWdodDogNDAwOyIgZHk9IjFlbSIgY2xhc3M9Im5vdGVUZXh0IiBhbGlnbm1lbnQtYmFzZWxpbmU9Im1pZGRsZSIgZG9taW5hbnQtYmFzZWxpbmU9Im1pZGRsZSIgdGV4dC1hbmNob3I9Im1pZGRsZSIgeT0iNDc1IiB4PSIxMDEwIj48dHNwYW4geD0iMTAxMCI+Y3JlZGVudGlhbHMgKyAyRkE8L3RzcGFuPjwvdGV4dD48dGV4dCBzdHlsZT0iZm9udC1mYW1pbHk6ICZxdW90O3RyZWJ1Y2hldCBtcyZxdW90OywgdmVyZGFuYSwgYXJpYWw7IGZvbnQtc2l6ZTogMTRweDsgZm9udC13ZWlnaHQ6IDQwMDsiIGR5PSIxZW0iIGNsYXNzPSJub3RlVGV4dCIgYWxpZ25tZW50LWJhc2VsaW5lPSJtaWRkbGUiIGRvbWluYW50LWJhc2VsaW5lPSJtaWRkbGUiIHRleHQtYW5jaG9yPSJtaWRkbGUiIHk9IjQ5MSIgeD0iMTAxMCI+PHRzcGFuIHg9IjEwMTAiPm9yIGRpZ2l0YWwgaWQ8L3RzcGFuPjwvdGV4dD48L2c+PGc+PHJlY3QgY2xhc3M9Im5vdGUiIHJ5PSIwIiByeD0iMCIgaGVpZ2h0PSI1MyIgd2lkdGg9IjE1MCIgc3Ryb2tlPSIjNjY2IiBmaWxsPSIjRURGMkFFIiB5PSI1NDMiIHg9IjEyNDMuNSI+PC9yZWN0Pjx0ZXh0IHN0eWxlPSJmb250LWZhbWlseTogJnF1b3Q7dHJlYnVjaGV0IG1zJnF1b3Q7LCB2ZXJkYW5hLCBhcmlhbDsgZm9udC1zaXplOiAxNHB4OyBmb250LXdlaWdodDogNDAwOyIgZHk9IjFlbSIgY2xhc3M9Im5vdGVUZXh0IiBhbGlnbm1lbnQtYmFzZWxpbmU9Im1pZGRsZSIgZG9taW5hbnQtYmFzZWxpbmU9Im1pZGRsZSIgdGV4dC1hbmNob3I9Im1pZGRsZSIgeT0iNTQ4IiB4PSIxMzE5Ij48dHNwYW4geD0iMTMxOSI+Q2FwdHVyZSBjb25zZW50PC90c3Bhbj48L3RleHQ+PHRleHQgc3R5bGU9ImZvbnQtZmFtaWx5OiAmcXVvdDt0cmVidWNoZXQgbXMmcXVvdDssIHZlcmRhbmEsIGFyaWFsOyBmb250LXNpemU6IDE0cHg7IGZvbnQtd2VpZ2h0OiA0MDA7IiBkeT0iMWVtIiBjbGFzcz0ibm90ZVRleHQiIGFsaWdubWVudC1iYXNlbGluZT0ibWlkZGxlIiBkb21pbmFudC1iYXNlbGluZT0ibWlkZGxlIiB0ZXh0LWFuY2hvcj0ibWlkZGxlIiB5PSI1NjUiIHg9IjEzMTkiPjx0c3BhbiB4PSIxMzE5Ij50byByZWdpc3RlciBkZXZpY2U8L3RzcGFuPjwvdGV4dD48L2c+PGc+PHJlY3QgY2xhc3M9Im5vdGUiIHJ5PSIwIiByeD0iMCIgaGVpZ2h0PSIzNyIgd2lkdGg9IjEwNDEiIHN0cm9rZT0iIzY2NiIgZmlsbD0iI0VERjJBRSIgeT0iNzQxIiB4PSIzMDIuNSI+PC9yZWN0Pjx0ZXh0IHN0eWxlPSJmb250LWZhbWlseTogJnF1b3Q7dHJlYnVjaGV0IG1zJnF1b3Q7LCB2ZXJkYW5hLCBhcmlhbDsgZm9udC1zaXplOiAxNHB4OyBmb250LXdlaWdodDogNDAwOyIgZHk9IjFlbSIgY2xhc3M9Im5vdGVUZXh0IiBhbGlnbm1lbnQtYmFzZWxpbmU9Im1pZGRsZSIgZG9taW5hbnQtYmFzZWxpbmU9Im1pZGRsZSIgdGV4dC1hbmNob3I9Im1pZGRsZSIgeT0iNzQ2IiB4PSI4MjMiPjx0c3BhbiB4PSI4MjMiPlJlZ2lzdGVyIERldmljZSBQcm9jZXNzPC90c3Bhbj48L3RleHQ+PC9nPjxnPjxyZWN0IGNsYXNzPSJub3RlIiByeT0iMCIgcng9IjAiIGhlaWdodD0iNTMiIHdpZHRoPSIxNTAiIHN0cm9rZT0iIzY2NiIgZmlsbD0iI0VERjJBRSIgeT0iOTMyIiB4PSIxMjQzLjUiPjwvcmVjdD48dGV4dCBzdHlsZT0iZm9udC1mYW1pbHk6ICZxdW90O3RyZWJ1Y2hldCBtcyZxdW90OywgdmVyZGFuYSwgYXJpYWw7IGZvbnQtc2l6ZTogMTRweDsgZm9udC13ZWlnaHQ6IDQwMDsiIGR5PSIxZW0iIGNsYXNzPSJub3RlVGV4dCIgYWxpZ25tZW50LWJhc2VsaW5lPSJtaWRkbGUiIGRvbWluYW50LWJhc2VsaW5lPSJtaWRkbGUiIHRleHQtYW5jaG9yPSJtaWRkbGUiIHk9IjkzNyIgeD0iMTMxOSI+PHRzcGFuIHg9IjEzMTkiPlN0b3JlIHB1YmxpYyBrZXk8L3RzcGFuPjwvdGV4dD48dGV4dCBzdHlsZT0iZm9udC1mYW1pbHk6ICZxdW90O3RyZWJ1Y2hldCBtcyZxdW90OywgdmVyZGFuYSwgYXJpYWw7IGZvbnQtc2l6ZTogMTRweDsgZm9udC13ZWlnaHQ6IDQwMDsiIGR5PSIxZW0iIGNsYXNzPSJub3RlVGV4dCIgYWxpZ25tZW50LWJhc2VsaW5lPSJtaWRkbGUiIGRvbWluYW50LWJhc2VsaW5lPSJtaWRkbGUiIHRleHQtYW5jaG9yPSJtaWRkbGUiIHk9Ijk1NCIgeD0iMTMxOSI+PHRzcGFuIHg9IjEzMTkiPmFuZCByZWdpc3RlciBkZXZpY2U8L3RzcGFuPjwvdGV4dD48L2c+PGc+PHJlY3QgY2xhc3M9Im5vdGUiIHJ5PSIwIiByeD0iMCIgaGVpZ2h0PSIzNyIgd2lkdGg9IjE2NSIgc3Ryb2tlPSIjNjY2IiBmaWxsPSIjRURGMkFFIiB5PSIxMTIxIiB4PSIyNDUiPjwvcmVjdD48dGV4dCBzdHlsZT0iZm9udC1mYW1pbHk6ICZxdW90O3RyZWJ1Y2hldCBtcyZxdW90OywgdmVyZGFuYSwgYXJpYWw7IGZvbnQtc2l6ZTogMTRweDsgZm9udC13ZWlnaHQ6IDQwMDsiIGR5PSIxZW0iIGNsYXNzPSJub3RlVGV4dCIgYWxpZ25tZW50LWJhc2VsaW5lPSJtaWRkbGUiIGRvbWluYW50LWJhc2VsaW5lPSJtaWRkbGUiIHRleHQtYW5jaG9yPSJtaWRkbGUiIHk9IjExMjYiIHg9IjMyOCI+PHRzcGFuIHg9IjMyOCI+UHJvbXB0ZWQgdG8gc2V0IHVwIFBJTjwvdHNwYW4+PC90ZXh0PjwvZz48Zz48cmVjdCBjbGFzcz0ibm90ZSIgcnk9IjAiIHJ4PSIwIiBoZWlnaHQ9IjM3IiB3aWR0aD0iMjc3IiBzdHJva2U9IiM2NjYiIGZpbGw9IiNFREYyQUUiIHk9IjEyODYiIHg9IjE4OSI+PC9yZWN0Pjx0ZXh0IHN0eWxlPSJmb250LWZhbWlseTogJnF1b3Q7dHJlYnVjaGV0IG1zJnF1b3Q7LCB2ZXJkYW5hLCBhcmlhbDsgZm9udC1zaXplOiAxNHB4OyBmb250LXdlaWdodDogNDAwOyIgZHk9IjFlbSIgY2xhc3M9Im5vdGVUZXh0IiBhbGlnbm1lbnQtYmFzZWxpbmU9Im1pZGRsZSIgZG9taW5hbnQtYmFzZWxpbmU9Im1pZGRsZSIgdGV4dC1hbmNob3I9Im1pZGRsZSIgeT0iMTI5MSIgeD0iMzI4Ij48dHNwYW4geD0iMzI4Ij5Qcm9tcHRlZCB0byBzZXQgdXAgYmlvbWV0cmljcyAob3B0aW9uYWwpPC90c3Bhbj48L3RleHQ+PC9nPjxnPjxyZWN0IGNsYXNzPSJub3RlIiByeT0iMCIgcng9IjAiIGhlaWdodD0iMzciIHdpZHRoPSI0MDUiIHN0cm9rZT0iIzY2NiIgZmlsbD0iI0VERjJBRSIgeT0iMTM3OCIgeD0iMTI1Ij48L3JlY3Q+PHRleHQgc3R5bGU9ImZvbnQtZmFtaWx5OiAmcXVvdDt0cmVidWNoZXQgbXMmcXVvdDssIHZlcmRhbmEsIGFyaWFsOyBmb250LXNpemU6IDE0cHg7IGZvbnQtd2VpZ2h0OiA0MDA7IiBkeT0iMWVtIiBjbGFzcz0ibm90ZVRleHQiIGFsaWdubWVudC1iYXNlbGluZT0ibWlkZGxlIiBkb21pbmFudC1iYXNlbGluZT0ibWlkZGxlIiB0ZXh0LWFuY2hvcj0ibWlkZGxlIiB5PSIxMzgzIiB4PSIzMjgiPjx0c3BhbiB4PSIzMjgiPkZvbGxvd3MgUmVnaXN0ZXIgRGV2aWNlIFByb2Nlc3MgKG5ldyBrZXkgcGFpciBmb3IgYmlvbWV0cmljcyk8L3RzcGFuPjwvdGV4dD48L2c+PGc+PGxpbmUgY2xhc3M9Imxvb3BMaW5lIiB5Mj0iMTMzMyIgeDI9IjU0MCIgeTE9IjEzMzMiIHgxPSIxMTUiPjwvbGluZT48bGluZSBjbGFzcz0ibG9vcExpbmUiIHkyPSIxNDI1IiB4Mj0iNTQwIiB5MT0iMTMzMyIgeDE9IjU0MCI+PC9saW5lPjxsaW5lIGNsYXNzPSJsb29wTGluZSIgeTI9IjE0MjUiIHgyPSI1NDAiIHkxPSIxNDI1IiB4MT0iMTE1Ij48L2xpbmU+PGxpbmUgY2xhc3M9Imxvb3BMaW5lIiB5Mj0iMTQyNSIgeDI9IjExNSIgeTE9IjEzMzMiIHgxPSIxMTUiPjwvbGluZT48cG9seWdvbiBjbGFzcz0ibGFiZWxCb3giIHBvaW50cz0iMTE1LDEzMzMgMTY1LDEzMzMgMTY1LDEzNDYgMTU2LjYsMTM1MyAxMTUsMTM1MyI+PC9wb2x5Z29uPjx0ZXh0IHN0eWxlPSJmb250LWZhbWlseTogJnF1b3Q7dHJlYnVjaGV0IG1zJnF1b3Q7LCB2ZXJkYW5hLCBhcmlhbDsgZm9udC1zaXplOiAxNnB4OyBmb250LXdlaWdodDogNDAwOyIgY2xhc3M9ImxhYmVsVGV4dCIgYWxpZ25tZW50LWJhc2VsaW5lPSJtaWRkbGUiIGRvbWluYW50LWJhc2VsaW5lPSJtaWRkbGUiIHRleHQtYW5jaG9yPSJtaWRkbGUiIHk9IjEzNDYiIHg9IjE0MCI+YWx0PC90ZXh0Pjx0ZXh0IHN0eWxlPSJmb250LWZhbWlseTogJnF1b3Q7dHJlYnVjaGV0IG1zJnF1b3Q7LCB2ZXJkYW5hLCBhcmlhbDsgZm9udC1zaXplOiAxNnB4OyBmb250LXdlaWdodDogNDAwOyIgY2xhc3M9Imxvb3BUZXh0IiB0ZXh0LWFuY2hvcj0ibWlkZGxlIiB5PSIxMzUxIiB4PSIzNTIuNSI+PHRzcGFuIHg9IjM1Mi41Ij5bUmVnaXN0ZXIgYmlvbWV0cmljc108L3RzcGFuPjwvdGV4dD48L2c+PHRleHQgc3R5bGU9ImZvbnQtZmFtaWx5OiAmcXVvdDt0cmVidWNoZXQgbXMmcXVvdDssIHZlcmRhbmEsIGFyaWFsOyBmb250LXNpemU6IDE2cHg7IGZvbnQtd2VpZ2h0OiA0MDA7IiBkeT0iMWVtIiBjbGFzcz0ibWVzc2FnZVRleHQiIGFsaWdubWVudC1iYXNlbGluZT0ibWlkZGxlIiBkb21pbmFudC1iYXNlbGluZT0ibWlkZGxlIiB0ZXh0LWFuY2hvcj0ibWlkZGxlIiB5PSI4MCIgeD0iNDY5Ij5HZW5lcmF0ZSBhbmQgc3RvcmUgZGV2aWNlX2lkPC90ZXh0PjxsaW5lIHN0eWxlPSJmaWxsOiBub25lOyIgbWFya2VyLXN0YXJ0PSJ1cmwoI3NlcXVlbmNlbnVtYmVyKSIgbWFya2VyLWVuZD0idXJsKCNhcnJvd2hlYWQpIiBzdHJva2U9Im5vbmUiIHN0cm9rZS13aWR0aD0iMiIgY2xhc3M9Im1lc3NhZ2VMaW5lMCIgeTI9IjExMyIgeDI9IjYwOS41IiB5MT0iMTEzIiB4MT0iMzI3LjUiPjwvbGluZT48dGV4dCBjbGFzcz0ic2VxdWVuY2VOdW1iZXIiIHRleHQtYW5jaG9yPSJtaWRkbGUiIGZvbnQtc2l6ZT0iMTJweCIgZm9udC1mYW1pbHk9InNhbnMtc2VyaWYiIHk9IjExNyIgeD0iMzI3LjUiPjE8L3RleHQ+PHRleHQgc3R5bGU9ImZvbnQtZmFtaWx5OiAmcXVvdDt0cmVidWNoZXQgbXMmcXVvdDssIHZlcmRhbmEsIGFyaWFsOyBmb250LXNpemU6IDE2cHg7IGZvbnQtd2VpZ2h0OiA0MDA7IiBkeT0iMWVtIiBjbGFzcz0ibWVzc2FnZVRleHQiIGFsaWdubWVudC1iYXNlbGluZT0ibWlkZGxlIiBkb21pbmFudC1iYXNlbGluZT0ibWlkZGxlIiB0ZXh0LWFuY2hvcj0ibWlkZGxlIiB5PSIxMjgiIHg9IjIwMSI+Q2xpY2tzIHNpZ24taW48L3RleHQ+PGxpbmUgc3R5bGU9ImZpbGw6IG5vbmU7IiBtYXJrZXItc3RhcnQ9InVybCgjc2VxdWVuY2VudW1iZXIpIiBtYXJrZXItZW5kPSJ1cmwoI2Fycm93aGVhZCkiIHN0cm9rZT0ibm9uZSIgc3Ryb2tlLXdpZHRoPSIyIiBjbGFzcz0ibWVzc2FnZUxpbmUwIiB5Mj0iMTYxIiB4Mj0iMzI3LjUiIHkxPSIxNjEiIHgxPSI3NSI+PC9saW5lPjx0ZXh0IGNsYXNzPSJzZXF1ZW5jZU51bWJlciIgdGV4dC1hbmNob3I9Im1pZGRsZSIgZm9udC1zaXplPSIxMnB4IiBmb250LWZhbWlseT0ic2Fucy1zZXJpZiIgeT0iMTY1IiB4PSI3NSI+MjwvdGV4dD48dGV4dCBzdHlsZT0iZm9udC1mYW1pbHk6ICZxdW90O3RyZWJ1Y2hldCBtcyZxdW90OywgdmVyZGFuYSwgYXJpYWw7IGZvbnQtc2l6ZTogMTZweDsgZm9udC13ZWlnaHQ6IDQwMDsiIGR5PSIxZW0iIGNsYXNzPSJtZXNzYWdlVGV4dCIgYWxpZ25tZW50LWJhc2VsaW5lPSJtaWRkbGUiIGRvbWluYW50LWJhc2VsaW5lPSJtaWRkbGUiIHRleHQtYW5jaG9yPSJtaWRkbGUiIHk9IjE3NiIgeD0iNjY5Ij5PcGVuIGVtYmVkZGVkIGJyb3dzZXI8L3RleHQ+PGxpbmUgc3R5bGU9ImZpbGw6IG5vbmU7IiBtYXJrZXItc3RhcnQ9InVybCgjc2VxdWVuY2VudW1iZXIpIiBtYXJrZXItZW5kPSJ1cmwoI2Fycm93aGVhZCkiIHN0cm9rZT0ibm9uZSIgc3Ryb2tlLXdpZHRoPSIyIiBjbGFzcz0ibWVzc2FnZUxpbmUwIiB5Mj0iMjA5IiB4Mj0iMTAwOS41IiB5MT0iMjA5IiB4MT0iMzI3LjUiPjwvbGluZT48dGV4dCBjbGFzcz0ic2VxdWVuY2VOdW1iZXIiIHRleHQtYW5jaG9yPSJtaWRkbGUiIGZvbnQtc2l6ZT0iMTJweCIgZm9udC1mYW1pbHk9InNhbnMtc2VyaWYiIHk9IjIxMyIgeD0iMzI3LjUiPjM8L3RleHQ+PHRleHQgc3R5bGU9ImZvbnQtZmFtaWx5OiAmcXVvdDt0cmVidWNoZXQgbXMmcXVvdDssIHZlcmRhbmEsIGFyaWFsOyBmb250LXNpemU6IDE2cHg7IGZvbnQtd2VpZ2h0OiA0MDA7IiBkeT0iMWVtIiBjbGFzcz0ibWVzc2FnZVRleHQiIGFsaWdubWVudC1iYXNlbGluZT0ibWlkZGxlIiBkb21pbmFudC1iYXNlbGluZT0ibWlkZGxlIiB0ZXh0LWFuY2hvcj0ibWlkZGxlIiB5PSIyMjQiIHg9IjExNjQiPkNhbGwgL2F1dGhvcml6ZSArIHNpZ25lZCBKV1Q8L3RleHQ+PGxpbmUgc3R5bGU9ImZpbGw6IG5vbmU7IiBtYXJrZXItc3RhcnQ9InVybCgjc2VxdWVuY2VudW1iZXIpIiBtYXJrZXItZW5kPSJ1cmwoI2Fycm93aGVhZCkiIHN0cm9rZT0ibm9uZSIgc3Ryb2tlLXdpZHRoPSIyIiBjbGFzcz0ibWVzc2FnZUxpbmUwIiB5Mj0iMjU3IiB4Mj0iMTMxOC41IiB5MT0iMjU3IiB4MT0iMTAwOS41Ij48L2xpbmU+PHRleHQgY2xhc3M9InNlcXVlbmNlTnVtYmVyIiB0ZXh0LWFuY2hvcj0ibWlkZGxlIiBmb250LXNpemU9IjEycHgiIGZvbnQtZmFtaWx5PSJzYW5zLXNlcmlmIiB5PSIyNjEiIHg9IjEwMDkuNSI+NDwvdGV4dD48dGV4dCBzdHlsZT0iZm9udC1mYW1pbHk6ICZxdW90O3RyZWJ1Y2hldCBtcyZxdW90OywgdmVyZGFuYSwgYXJpYWw7IGZvbnQtc2l6ZTogMTZweDsgZm9udC13ZWlnaHQ6IDQwMDsiIGR5PSIxZW0iIGNsYXNzPSJtZXNzYWdlVGV4dCIgYWxpZ25tZW50LWJhc2VsaW5lPSJtaWRkbGUiIGRvbWluYW50LWJhc2VsaW5lPSJtaWRkbGUiIHRleHQtYW5jaG9yPSJtaWRkbGUiIHk9IjM1MiIgeD0iMTE2NCI+RGlzcGxheSBtb2JpbGUgbG9naW4gcGFnZTwvdGV4dD48bGluZSBzdHlsZT0ic3Ryb2tlLWRhc2hhcnJheTogMywgMzsgZmlsbDogbm9uZTsiIG1hcmtlci1zdGFydD0idXJsKCNzZXF1ZW5jZW51bWJlcikiIG1hcmtlci1lbmQ9InVybCgjYXJyb3doZWFkKSIgc3Ryb2tlPSJub25lIiBzdHJva2Utd2lkdGg9IjIiIGNsYXNzPSJtZXNzYWdlTGluZTEiIHkyPSIzODUiIHgyPSIxMDA5LjUiIHkxPSIzODUiIHgxPSIxMzE4LjUiPjwvbGluZT48dGV4dCBjbGFzcz0ic2VxdWVuY2VOdW1iZXIiIHRleHQtYW5jaG9yPSJtaWRkbGUiIGZvbnQtc2l6ZT0iMTJweCIgZm9udC1mYW1pbHk9InNhbnMtc2VyaWYiIHk9IjM4OSIgeD0iMTMxOC41Ij41PC90ZXh0Pjx0ZXh0IHN0eWxlPSJmb250LWZhbWlseTogJnF1b3Q7dHJlYnVjaGV0IG1zJnF1b3Q7LCB2ZXJkYW5hLCBhcmlhbDsgZm9udC1zaXplOiAxNnB4OyBmb250LXdlaWdodDogNDAwOyIgZHk9IjFlbSIgY2xhc3M9Im1lc3NhZ2VUZXh0IiBhbGlnbm1lbnQtYmFzZWxpbmU9Im1pZGRsZSIgZG9taW5hbnQtYmFzZWxpbmU9Im1pZGRsZSIgdGV4dC1hbmNob3I9Im1pZGRsZSIgeT0iNDAwIiB4PSI1NDIiPjwvdGV4dD48bGluZSBzdHlsZT0ic3Ryb2tlLWRhc2hhcnJheTogMywgMzsgZmlsbDogbm9uZTsiIG1hcmtlci1zdGFydD0idXJsKCNzZXF1ZW5jZW51bWJlcikiIG1hcmtlci1lbmQ9InVybCgjYXJyb3doZWFkKSIgc3Ryb2tlPSJub25lIiBzdHJva2Utd2lkdGg9IjIiIGNsYXNzPSJtZXNzYWdlTGluZTEiIHkyPSIzOTUiIHgyPSI3NSIgeTE9IjM5NSIgeDE9IjEwMDkuNSI+PC9saW5lPjx0ZXh0IGNsYXNzPSJzZXF1ZW5jZU51bWJlciIgdGV4dC1hbmNob3I9Im1pZGRsZSIgZm9udC1zaXplPSIxMnB4IiBmb250LWZhbWlseT0ic2Fucy1zZXJpZiIgeT0iMzk5IiB4PSIxMDA5LjUiPjY8L3RleHQ+PHRleHQgc3R5bGU9ImZvbnQtZmFtaWx5OiAmcXVvdDt0cmVidWNoZXQgbXMmcXVvdDssIHZlcmRhbmEsIGFyaWFsOyBmb250LXNpemU6IDE2cHg7IGZvbnQtd2VpZ2h0OiA0MDA7IiBkeT0iMWVtIiBjbGFzcz0ibWVzc2FnZVRleHQiIGFsaWdubWVudC1iYXNlbGluZT0ibWlkZGxlIiBkb21pbmFudC1iYXNlbGluZT0ibWlkZGxlIiB0ZXh0LWFuY2hvcj0ibWlkZGxlIiB5PSI0MTAiIHg9IjU0MiI+TG9ncyBpbiB0byBteUdvdjwvdGV4dD48bGluZSBzdHlsZT0iZmlsbDogbm9uZTsiIG1hcmtlci1zdGFydD0idXJsKCNzZXF1ZW5jZW51bWJlcikiIG1hcmtlci1lbmQ9InVybCgjYXJyb3doZWFkKSIgc3Ryb2tlPSJub25lIiBzdHJva2Utd2lkdGg9IjIiIGNsYXNzPSJtZXNzYWdlTGluZTAiIHkyPSI0NDMiIHgyPSIxMDA5LjUiIHkxPSI0NDMiIHgxPSI3NSI+PC9saW5lPjx0ZXh0IGNsYXNzPSJzZXF1ZW5jZU51bWJlciIgdGV4dC1hbmNob3I9Im1pZGRsZSIgZm9udC1zaXplPSIxMnB4IiBmb250LWZhbWlseT0ic2Fucy1zZXJpZiIgeT0iNDQ3IiB4PSI3NSI+NzwvdGV4dD48dGV4dCBzdHlsZT0iZm9udC1mYW1pbHk6ICZxdW90O3RyZWJ1Y2hldCBtcyZxdW90OywgdmVyZGFuYSwgYXJpYWw7IGZvbnQtc2l6ZTogMTZweDsgZm9udC13ZWlnaHQ6IDQwMDsiIGR5PSIxZW0iIGNsYXNzPSJtZXNzYWdlVGV4dCIgYWxpZ25tZW50LWJhc2VsaW5lPSJtaWRkbGUiIGRvbWluYW50LWJhc2VsaW5lPSJtaWRkbGUiIHRleHQtYW5jaG9yPSJtaWRkbGUiIHk9IjUzOCIgeD0iMTE2NCI+PC90ZXh0PjxsaW5lIHN0eWxlPSJmaWxsOiBub25lOyIgbWFya2VyLXN0YXJ0PSJ1cmwoI3NlcXVlbmNlbnVtYmVyKSIgbWFya2VyLWVuZD0idXJsKCNhcnJvd2hlYWQpIiBzdHJva2U9Im5vbmUiIHN0cm9rZS13aWR0aD0iMiIgY2xhc3M9Im1lc3NhZ2VMaW5lMCIgeTI9IjUzMyIgeDI9IjEzMTguNSIgeTE9IjUzMyIgeDE9IjEwMDkuNSI+PC9saW5lPjx0ZXh0IGNsYXNzPSJzZXF1ZW5jZU51bWJlciIgdGV4dC1hbmNob3I9Im1pZGRsZSIgZm9udC1zaXplPSIxMnB4IiBmb250LWZhbWlseT0ic2Fucy1zZXJpZiIgeT0iNTM3IiB4PSIxMDA5LjUiPjg8L3RleHQ+PHRleHQgc3R5bGU9ImZvbnQtZmFtaWx5OiAmcXVvdDt0cmVidWNoZXQgbXMmcXVvdDssIHZlcmRhbmEsIGFyaWFsOyBmb250LXNpemU6IDE2cHg7IGZvbnQtd2VpZ2h0OiA0MDA7IiBkeT0iMWVtIiBjbGFzcz0ibWVzc2FnZVRleHQiIGFsaWdubWVudC1iYXNlbGluZT0ibWlkZGxlIiBkb21pbmFudC1iYXNlbGluZT0ibWlkZGxlIiB0ZXh0LWFuY2hvcj0ibWlkZGxlIiB5PSI2MTEiIHg9IjExNjQiPjMwMiByZWRpcmVjdCB0byBtb2JpbGUgcmV0dXJuX3VybDwvdGV4dD48dGV4dCBzdHlsZT0iZm9udC1mYW1pbHk6ICZxdW90O3RyZWJ1Y2hldCBtcyZxdW90OywgdmVyZGFuYSwgYXJpYWw7IGZvbnQtc2l6ZTogMTZweDsgZm9udC13ZWlnaHQ6IDQwMDsiIGR5PSIxZW0iIGNsYXNzPSJtZXNzYWdlVGV4dCIgYWxpZ25tZW50LWJhc2VsaW5lPSJtaWRkbGUiIGRvbWluYW50LWJhc2VsaW5lPSJtaWRkbGUiIHRleHQtYW5jaG9yPSJtaWRkbGUiIHk9IjYzMCIgeD0iMTE2NCI+KyBvbmUgdGltZSBhdXRoIGNvZGU8L3RleHQ+PGxpbmUgc3R5bGU9InN0cm9rZS1kYXNoYXJyYXk6IDMsIDM7IGZpbGw6IG5vbmU7IiBtYXJrZXItc3RhcnQ9InVybCgjc2VxdWVuY2VudW1iZXIpIiBtYXJrZXItZW5kPSJ1cmwoI2Fycm93aGVhZCkiIHN0cm9rZT0ibm9uZSIgc3Ryb2tlLXdpZHRoPSIyIiBjbGFzcz0ibWVzc2FnZUxpbmUxIiB5Mj0iNjYzIiB4Mj0iMTAwOS41IiB5MT0iNjYzIiB4MT0iMTMxOC41Ij48L2xpbmU+PHRleHQgY2xhc3M9InNlcXVlbmNlTnVtYmVyIiB0ZXh0LWFuY2hvcj0ibWlkZGxlIiBmb250LXNpemU9IjEycHgiIGZvbnQtZmFtaWx5PSJzYW5zLXNlcmlmIiB5PSI2NjciIHg9IjEzMTguNSI+OTwvdGV4dD48dGV4dCBzdHlsZT0iZm9udC1mYW1pbHk6ICZxdW90O3RyZWJ1Y2hldCBtcyZxdW90OywgdmVyZGFuYSwgYXJpYWw7IGZvbnQtc2l6ZTogMTZweDsgZm9udC13ZWlnaHQ6IDQwMDsiIGR5PSIxZW0iIGNsYXNzPSJtZXNzYWdlVGV4dCIgYWxpZ25tZW50LWJhc2VsaW5lPSJtaWRkbGUiIGRvbWluYW50LWJhc2VsaW5lPSJtaWRkbGUiIHRleHQtYW5jaG9yPSJtaWRkbGUiIHk9IjY3OCIgeD0iNjY5Ij5kZXRlY3RzIHJldHVybl91cmw8L3RleHQ+PGxpbmUgc3R5bGU9InN0cm9rZS1kYXNoYXJyYXk6IDMsIDM7IGZpbGw6IG5vbmU7IiBtYXJrZXItc3RhcnQ9InVybCgjc2VxdWVuY2VudW1iZXIpIiBtYXJrZXItZW5kPSJ1cmwoI2Fycm93aGVhZCkiIHN0cm9rZT0ibm9uZSIgc3Ryb2tlLXdpZHRoPSIyIiBjbGFzcz0ibWVzc2FnZUxpbmUxIiB5Mj0iNzExIiB4Mj0iMzI3LjUiIHkxPSI3MTEiIHgxPSIxMDA5LjUiPjwvbGluZT48dGV4dCBjbGFzcz0ic2VxdWVuY2VOdW1iZXIiIHRleHQtYW5jaG9yPSJtaWRkbGUiIGZvbnQtc2l6ZT0iMTJweCIgZm9udC1mYW1pbHk9InNhbnMtc2VyaWYiIHk9IjcxNSIgeD0iMTAwOS41Ij4xMDwvdGV4dD48dGV4dCBzdHlsZT0iZm9udC1mYW1pbHk6ICZxdW90O3RyZWJ1Y2hldCBtcyZxdW90OywgdmVyZGFuYSwgYXJpYWw7IGZvbnQtc2l6ZTogMTZweDsgZm9udC13ZWlnaHQ6IDQwMDsiIGR5PSIxZW0iIGNsYXNzPSJtZXNzYWdlVGV4dCIgYWxpZ25tZW50LWJhc2VsaW5lPSJtaWRkbGUiIGRvbWluYW50LWJhc2VsaW5lPSJtaWRkbGUiIHRleHQtYW5jaG9yPSJtaWRkbGUiIHk9Ijc5MyIgeD0iNTY5Ij5HZW5lcmF0ZSBrZXkgcGFpcjwvdGV4dD48bGluZSBzdHlsZT0iZmlsbDogbm9uZTsiIG1hcmtlci1zdGFydD0idXJsKCNzZXF1ZW5jZW51bWJlcikiIG1hcmtlci1lbmQ9InVybCgjYXJyb3doZWFkKSIgc3Ryb2tlPSJub25lIiBzdHJva2Utd2lkdGg9IjIiIGNsYXNzPSJtZXNzYWdlTGluZTAiIHkyPSI4MjYiIHgyPSI4MDkuNSIgeTE9IjgyNiIgeDE9IjMyNy41Ij48L2xpbmU+PHRleHQgY2xhc3M9InNlcXVlbmNlTnVtYmVyIiB0ZXh0LWFuY2hvcj0ibWlkZGxlIiBmb250LXNpemU9IjEycHgiIGZvbnQtZmFtaWx5PSJzYW5zLXNlcmlmIiB5PSI4MzAiIHg9IjMyNy41Ij4xMTwvdGV4dD48dGV4dCBzdHlsZT0iZm9udC1mYW1pbHk6ICZxdW90O3RyZWJ1Y2hldCBtcyZxdW90OywgdmVyZGFuYSwgYXJpYWw7IGZvbnQtc2l6ZTogMTZweDsgZm9udC13ZWlnaHQ6IDQwMDsiIGR5PSIxZW0iIGNsYXNzPSJtZXNzYWdlVGV4dCIgYWxpZ25tZW50LWJhc2VsaW5lPSJtaWRkbGUiIGRvbWluYW50LWJhc2VsaW5lPSJtaWRkbGUiIHRleHQtYW5jaG9yPSJtaWRkbGUiIHk9Ijg0MSIgeD0iNTY5Ij5QdWJsaWMga2V5PC90ZXh0PjxsaW5lIHN0eWxlPSJzdHJva2UtZGFzaGFycmF5OiAzLCAzOyBmaWxsOiBub25lOyIgbWFya2VyLXN0YXJ0PSJ1cmwoI3NlcXVlbmNlbnVtYmVyKSIgbWFya2VyLWVuZD0idXJsKCNhcnJvd2hlYWQpIiBzdHJva2U9Im5vbmUiIHN0cm9rZS13aWR0aD0iMiIgY2xhc3M9Im1lc3NhZ2VMaW5lMSIgeTI9Ijg3NCIgeDI9IjMyNy41IiB5MT0iODc0IiB4MT0iODA5LjUiPjwvbGluZT48dGV4dCBjbGFzcz0ic2VxdWVuY2VOdW1iZXIiIHRleHQtYW5jaG9yPSJtaWRkbGUiIGZvbnQtc2l6ZT0iMTJweCIgZm9udC1mYW1pbHk9InNhbnMtc2VyaWYiIHk9Ijg3OCIgeD0iODA5LjUiPjEyPC90ZXh0Pjx0ZXh0IHN0eWxlPSJmb250LWZhbWlseTogJnF1b3Q7dHJlYnVjaGV0IG1zJnF1b3Q7LCB2ZXJkYW5hLCBhcmlhbDsgZm9udC1zaXplOiAxNnB4OyBmb250LXdlaWdodDogNDAwOyIgZHk9IjFlbSIgY2xhc3M9Im1lc3NhZ2VUZXh0IiBhbGlnbm1lbnQtYmFzZWxpbmU9Im1pZGRsZSIgZG9taW5hbnQtYmFzZWxpbmU9Im1pZGRsZSIgdGV4dC1hbmNob3I9Im1pZGRsZSIgeT0iODg5IiB4PSI4MjMiPkNhbGwgL3Rva2VuIHdpdGggYXV0aCBjb2RlIGFuZCBwdWJsaWMga2V5PC90ZXh0PjxsaW5lIHN0eWxlPSJmaWxsOiBub25lOyIgbWFya2VyLXN0YXJ0PSJ1cmwoI3NlcXVlbmNlbnVtYmVyKSIgbWFya2VyLWVuZD0idXJsKCNhcnJvd2hlYWQpIiBzdHJva2U9Im5vbmUiIHN0cm9rZS13aWR0aD0iMiIgY2xhc3M9Im1lc3NhZ2VMaW5lMCIgeTI9IjkyMiIgeDI9IjEzMTguNSIgeTE9IjkyMiIgeDE9IjMyNy41Ij48L2xpbmU+PHRleHQgY2xhc3M9InNlcXVlbmNlTnVtYmVyIiB0ZXh0LWFuY2hvcj0ibWlkZGxlIiBmb250LXNpemU9IjEycHgiIGZvbnQtZmFtaWx5PSJzYW5zLXNlcmlmIiB5PSI5MjYiIHg9IjMyNy41Ij4xMzwvdGV4dD48dGV4dCBzdHlsZT0iZm9udC1mYW1pbHk6ICZxdW90O3RyZWJ1Y2hldCBtcyZxdW90OywgdmVyZGFuYSwgYXJpYWw7IGZvbnQtc2l6ZTogMTZweDsgZm9udC13ZWlnaHQ6IDQwMDsiIGR5PSIxZW0iIGNsYXNzPSJtZXNzYWdlVGV4dCIgYWxpZ25tZW50LWJhc2VsaW5lPSJtaWRkbGUiIGRvbWluYW50LWJhc2VsaW5lPSJtaWRkbGUiIHRleHQtYW5jaG9yPSJtaWRkbGUiIHk9IjEwMDAiIHg9IjgyMyI+cmV0dXJuX2lkLCByZWZyZXNoIHRva2VuLCBhY2Nlc3MgdG9rZW48L3RleHQ+PGxpbmUgc3R5bGU9InN0cm9rZS1kYXNoYXJyYXk6IDMsIDM7IGZpbGw6IG5vbmU7IiBtYXJrZXItc3RhcnQ9InVybCgjc2VxdWVuY2VudW1iZXIpIiBtYXJrZXItZW5kPSJ1cmwoI2Fycm93aGVhZCkiIHN0cm9rZT0ibm9uZSIgc3Ryb2tlLXdpZHRoPSIyIiBjbGFzcz0ibWVzc2FnZUxpbmUxIiB5Mj0iMTAzMyIgeDI9IjMyNy41IiB5MT0iMTAzMyIgeDE9IjEzMTguNSI+PC9saW5lPjx0ZXh0IGNsYXNzPSJzZXF1ZW5jZU51bWJlciIgdGV4dC1hbmNob3I9Im1pZGRsZSIgZm9udC1zaXplPSIxMnB4IiBmb250LWZhbWlseT0ic2Fucy1zZXJpZiIgeT0iMTAzNyIgeD0iMTMxOC41Ij4xNDwvdGV4dD48dGV4dCBzdHlsZT0iZm9udC1mYW1pbHk6ICZxdW90O3RyZWJ1Y2hldCBtcyZxdW90OywgdmVyZGFuYSwgYXJpYWw7IGZvbnQtc2l6ZTogMTZweDsgZm9udC13ZWlnaHQ6IDQwMDsiIGR5PSIxZW0iIGNsYXNzPSJtZXNzYWdlVGV4dCIgYWxpZ25tZW50LWJhc2VsaW5lPSJtaWRkbGUiIGRvbWluYW50LWJhc2VsaW5lPSJtaWRkbGUiIHRleHQtYW5jaG9yPSJtaWRkbGUiIHk9IjEwNDgiIHg9IjMyOCI+U2F2ZSByZWZyZXNoIHRva2VuIHRvIGtleS1jaGFpbjwvdGV4dD48cGF0aCBzdHlsZT0iZmlsbDogbm9uZTsiIG1hcmtlci1zdGFydD0idXJsKCNzZXF1ZW5jZW51bWJlcikiIG1hcmtlci1lbmQ9InVybCgjYXJyb3doZWFkKSIgc3Ryb2tlPSJub25lIiBzdHJva2Utd2lkdGg9IjIiIGNsYXNzPSJtZXNzYWdlTGluZTAiIGQ9Ik0gMzI3LjUsMTA4MSBDIDM4Ny41LDEwNzEgMzg3LjUsMTExMSAzMjcuNSwxMTAxIj48L3BhdGg+PHRleHQgY2xhc3M9InNlcXVlbmNlTnVtYmVyIiB0ZXh0LWFuY2hvcj0ibWlkZGxlIiBmb250LXNpemU9IjEycHgiIGZvbnQtZmFtaWx5PSJzYW5zLXNlcmlmIiB5PSIxMDg1IiB4PSIzMjcuNSI+MTU8L3RleHQ+PHRleHQgc3R5bGU9ImZvbnQtZmFtaWx5OiAmcXVvdDt0cmVidWNoZXQgbXMmcXVvdDssIHZlcmRhbmEsIGFyaWFsOyBmb250LXNpemU6IDE2cHg7IGZvbnQtd2VpZ2h0OiA0MDA7IiBkeT0iMWVtIiBjbGFzcz0ibWVzc2FnZVRleHQiIGFsaWdubWVudC1iYXNlbGluZT0ibWlkZGxlIiBkb21pbmFudC1iYXNlbGluZT0ibWlkZGxlIiB0ZXh0LWFuY2hvcj0ibWlkZGxlIiB5PSIxMTczIiB4PSIzMjgiPlNhdmUgUElOIHRvIGtleS1jaGFpbjwvdGV4dD48cGF0aCBzdHlsZT0iZmlsbDogbm9uZTsiIG1hcmtlci1zdGFydD0idXJsKCNzZXF1ZW5jZW51bWJlcikiIG1hcmtlci1lbmQ9InVybCgjYXJyb3doZWFkKSIgc3Ryb2tlPSJub25lIiBzdHJva2Utd2lkdGg9IjIiIGNsYXNzPSJtZXNzYWdlTGluZTAiIGQ9Ik0gMzI3LjUsMTIwNiBDIDM4Ny41LDExOTYgMzg3LjUsMTIzNiAzMjcuNSwxMjI2Ij48L3BhdGg+PHRleHQgY2xhc3M9InNlcXVlbmNlTnVtYmVyIiB0ZXh0LWFuY2hvcj0ibWlkZGxlIiBmb250LXNpemU9IjEycHgiIGZvbnQtZmFtaWx5PSJzYW5zLXNlcmlmIiB5PSIxMjEwIiB4PSIzMjcuNSI+MTY8L3RleHQ+PHRleHQgc3R5bGU9ImZvbnQtZmFtaWx5OiAmcXVvdDt0cmVidWNoZXQgbXMmcXVvdDssIHZlcmRhbmEsIGFyaWFsOyBmb250LXNpemU6IDE2cHg7IGZvbnQtd2VpZ2h0OiA0MDA7IiBkeT0iMWVtIiBjbGFzcz0ibWVzc2FnZVRleHQiIGFsaWdubWVudC1iYXNlbGluZT0ibWlkZGxlIiBkb21pbmFudC1iYXNlbGluZT0ibWlkZGxlIiB0ZXh0LWFuY2hvcj0ibWlkZGxlIiB5PSIxNDQwIiB4PSIyMDEiPkluaXRpYWwgbG9naW4gY29tcGxldGU8L3RleHQ+PGxpbmUgc3R5bGU9InN0cm9rZS1kYXNoYXJyYXk6IDMsIDM7IGZpbGw6IG5vbmU7IiBtYXJrZXItc3RhcnQ9InVybCgjc2VxdWVuY2VudW1iZXIpIiBtYXJrZXItZW5kPSJ1cmwoI2Fycm93aGVhZCkiIHN0cm9rZT0ibm9uZSIgc3Ryb2tlLXdpZHRoPSIyIiBjbGFzcz0ibWVzc2FnZUxpbmUxIiB5Mj0iMTQ3MyIgeDI9Ijc1IiB5MT0iMTQ3MyIgeDE9IjMyNy41Ij48L2xpbmU+PHRleHQgY2xhc3M9InNlcXVlbmNlTnVtYmVyIiB0ZXh0LWFuY2hvcj0ibWlkZGxlIiBmb250LXNpemU9IjEycHgiIGZvbnQtZmFtaWx5PSJzYW5zLXNlcmlmIiB5PSIxNDc3IiB4PSIzMjcuNSI+MTc8L3RleHQ+PGc+PHJlY3QgY2xhc3M9ImFjdG9yIiByeT0iMyIgcng9IjMiIGhlaWdodD0iNjUiIHdpZHRoPSIxNTAiIHN0cm9rZT0iIzY2NiIgZmlsbD0iI2VhZWFlYSIgeT0iMTQ5MyIgeD0iMCI+PC9yZWN0Pjx0ZXh0IHN0eWxlPSJ0ZXh0LWFuY2hvcjogbWlkZGxlOyBmb250LXNpemU6IDE0cHg7IGZvbnQtd2VpZ2h0OiA0MDA7IGZvbnQtZmFtaWx5OiBPcGVuLVNhbnMsICZxdW90O3NhbnMtc2VyaWYmcXVvdDs7IiBjbGFzcz0iYWN0b3IiIGFsaWdubWVudC1iYXNlbGluZT0iY2VudHJhbCIgZG9taW5hbnQtYmFzZWxpbmU9ImNlbnRyYWwiIHk9IjE1MjUuNSIgeD0iNzUiPjx0c3BhbiBkeT0iMCIgeD0iNzUiPkNpdGl6ZW48L3RzcGFuPjwvdGV4dD48L2c+PGc+PHJlY3QgY2xhc3M9ImFjdG9yIiByeT0iMyIgcng9IjMiIGhlaWdodD0iNjUiIHdpZHRoPSIxNTAiIHN0cm9rZT0iIzY2NiIgZmlsbD0iI2VhZWFlYSIgeT0iMTQ5MyIgeD0iMjUyLjUiPjwvcmVjdD48dGV4dCBzdHlsZT0idGV4dC1hbmNob3I6IG1pZGRsZTsgZm9udC1zaXplOiAxNHB4OyBmb250LXdlaWdodDogNDAwOyBmb250LWZhbWlseTogT3Blbi1TYW5zLCAmcXVvdDtzYW5zLXNlcmlmJnF1b3Q7OyIgY2xhc3M9ImFjdG9yIiBhbGlnbm1lbnQtYmFzZWxpbmU9ImNlbnRyYWwiIGRvbWluYW50LWJhc2VsaW5lPSJjZW50cmFsIiB5PSIxNTI1LjUiIHg9IjMyNy41Ij48dHNwYW4gZHk9IjAiIHg9IjMyNy41Ij5teUdvdiBBcHA8L3RzcGFuPjwvdGV4dD48L2c+PGc+PHJlY3QgY2xhc3M9ImFjdG9yIiByeT0iMyIgcng9IjMiIGhlaWdodD0iNjUiIHdpZHRoPSIxNTAiIHN0cm9rZT0iIzY2NiIgZmlsbD0iI2VhZWFlYSIgeT0iMTQ5MyIgeD0iNTM0LjUiPjwvcmVjdD48dGV4dCBzdHlsZT0idGV4dC1hbmNob3I6IG1pZGRsZTsgZm9udC1zaXplOiAxNHB4OyBmb250LXdlaWdodDogNDAwOyBmb250LWZhbWlseTogT3Blbi1TYW5zLCAmcXVvdDtzYW5zLXNlcmlmJnF1b3Q7OyIgY2xhc3M9ImFjdG9yIiBhbGlnbm1lbnQtYmFzZWxpbmU9ImNlbnRyYWwiIGRvbWluYW50LWJhc2VsaW5lPSJjZW50cmFsIiB5PSIxNTI1LjUiIHg9IjYwOS41Ij48dHNwYW4gZHk9IjAiIHg9IjYwOS41Ij5BcHAgU3RvcmFnZTwvdHNwYW4+PC90ZXh0PjwvZz48Zz48cmVjdCBjbGFzcz0iYWN0b3IiIHJ5PSIzIiByeD0iMyIgaGVpZ2h0PSI2NSIgd2lkdGg9IjE1MCIgc3Ryb2tlPSIjNjY2IiBmaWxsPSIjZWFlYWVhIiB5PSIxNDkzIiB4PSI3MzQuNSI+PC9yZWN0Pjx0ZXh0IHN0eWxlPSJ0ZXh0LWFuY2hvcjogbWlkZGxlOyBmb250LXNpemU6IDE0cHg7IGZvbnQtd2VpZ2h0OiA0MDA7IGZvbnQtZmFtaWx5OiBPcGVuLVNhbnMsICZxdW90O3NhbnMtc2VyaWYmcXVvdDs7IiBjbGFzcz0iYWN0b3IiIGFsaWdubWVudC1iYXNlbGluZT0iY2VudHJhbCIgZG9taW5hbnQtYmFzZWxpbmU9ImNlbnRyYWwiIHk9IjE1MjUuNSIgeD0iODA5LjUiPjx0c3BhbiBkeT0iMCIgeD0iODA5LjUiPkFwcCBTZWN1cmUgRW5jbGF2ZTwvdHNwYW4+PC90ZXh0PjwvZz48Zz48cmVjdCBjbGFzcz0iYWN0b3IiIHJ5PSIzIiByeD0iMyIgaGVpZ2h0PSI2NSIgd2lkdGg9IjE1MCIgc3Ryb2tlPSIjNjY2IiBmaWxsPSIjZWFlYWVhIiB5PSIxNDkzIiB4PSI5MzQuNSI+PC9yZWN0Pjx0ZXh0IHN0eWxlPSJ0ZXh0LWFuY2hvcjogbWlkZGxlOyBmb250LXNpemU6IDE0cHg7IGZvbnQtd2VpZ2h0OiA0MDA7IGZvbnQtZmFtaWx5OiBPcGVuLVNhbnMsICZxdW90O3NhbnMtc2VyaWYmcXVvdDs7IiBjbGFzcz0iYWN0b3IiIGFsaWdubWVudC1iYXNlbGluZT0iY2VudHJhbCIgZG9taW5hbnQtYmFzZWxpbmU9ImNlbnRyYWwiIHk9IjE1MjUuNSIgeD0iMTAwOS41Ij48dHNwYW4gZHk9IjAiIHg9IjEwMDkuNSI+RW1iZWRkZWQgV2ViPC90c3Bhbj48L3RleHQ+PC9nPjxnPjxyZWN0IGNsYXNzPSJhY3RvciIgcnk9IjMiIHJ4PSIzIiBoZWlnaHQ9IjY1IiB3aWR0aD0iMTUwIiBzdHJva2U9IiM2NjYiIGZpbGw9IiNlYWVhZWEiIHk9IjE0OTMiIHg9IjEyNDMuNSI+PC9yZWN0Pjx0ZXh0IHN0eWxlPSJ0ZXh0LWFuY2hvcjogbWlkZGxlOyBmb250LXNpemU6IDE0cHg7IGZvbnQtd2VpZ2h0OiA0MDA7IGZvbnQtZmFtaWx5OiBPcGVuLVNhbnMsICZxdW90O3NhbnMtc2VyaWYmcXVvdDs7IiBjbGFzcz0iYWN0b3IiIGFsaWdubWVudC1iYXNlbGluZT0iY2VudHJhbCIgZG9taW5hbnQtYmFzZWxpbmU9ImNlbnRyYWwiIHk9IjE1MjUuNSIgeD0iMTMxOC41Ij48dHNwYW4gZHk9IjAiIHg9IjEzMTguNSI+bXlHb3YgT0lEQzwvdHNwYW4+PC90ZXh0PjwvZz48L3N2Zz4=;fontFamily=Open Sans;" vertex="1" parent="1">
                        <mxGeometry x="10" y="10" width="810" height="949" as="geometry"/>
                    </mxCell>
                </UserObject>
            </root>
        </mxGraphModel>
    </diagram>
</mxfile>